<?xml version="1.0" encoding="UTF-8"?>
<svg width="345px" height="360px" viewBox="0 0 345 360" version="1.1" xmlns="http://www.w3.org/2000/svg" xmlns:xlink="http://www.w3.org/1999/xlink">
    <title>calendly</title>
    <g id="Page-1" stroke="none" stroke-width="1" fill="none" fill-rule="evenodd">
        <g id="Artboard" transform="translate(-345.000000, -374.000000)">
            <g id="calendly" transform="translate(345.000000, 374.000000)">
                <rect id="Rectangle" fill="#FFFFFF" x="16" y="34" width="311" height="311" rx="10"></rect>
                <path d="M306.4,360 L38.1,360 C17.1,360 0,342.9 0,321.9 L0,53.5 C0,32.5 17.1,15.4 38.1,15.4 L306.4,15.4 C327.4,15.4 344.500436,32.5 344.500436,53.5 L344.500436,321.8 C344.6,342.9 327.5,360 306.4,360 Z M38.1,36.5 C28.7,36.5 21.1,44.1 21.1,53.5 L21.1,321.8 C21.1,331.2 28.7,338.8 38.1,338.8 L306.4,338.8 C315.8,338.8 323.4,331.2 323.4,321.8 L323.4,53.5 C323.4,44.1 315.8,36.5 306.4,36.5 L38.1,36.5 Z" id="Shape" fill="#76777A" fill-rule="nonzero"></path>
                <path d="M249.2,72.4 C244.7,72.4 241.1,68.8 241.1,64.3 L241.1,8.1 C241.1,3.6 244.7,1.42108547e-14 249.2,1.42108547e-14 C253.7,1.42108547e-14 257.3,3.6 257.3,8.1 L257.3,64.2 C257.3,68.7 253.7,72.4 249.2,72.4 L249.2,72.4 Z M94.5,72.4 C90,72.4 86.4,68.8 86.4,64.3 L86.4,8.1 C86.4,3.6 90,1.42108547e-14 94.5,1.42108547e-14 C99,1.42108547e-14 102.6,3.6 102.6,8.1 L102.6,64.2 C102.7,68.7 99,72.4 94.5,72.4 L94.5,72.4 Z M121.1,192.9 C121.1,159.3 148.4,132 182,132 C197.2,132 211.7,137.6 222.9,147.8 C224.3,149 224.4,151.2 223.1,152.5 C221.9,153.9 219.7,154 218.4,152.7 C208.4,143.6 195.5,138.6 182,138.6 C152.1,138.6 127.8,162.9 127.8,192.8 C127.8,222.7 152.1,247 182,247 C195.5,247 208.4,242 218.4,232.9 C219.8,231.7 221.9,231.8 223.1,233.1 C224.3,234.5 224.2,236.6 222.9,237.8 C211.7,248.2 197.2,253.8 182,253.8 C148.4,253.8 121.1,226.5 121.1,192.9 Z" id="Shape" fill="#76777A" fill-rule="nonzero"></path>
            </g>
        </g>
    </g>
</svg>