<?xml version="1.0" encoding="UTF-8"?>
<svg width="512px" height="512px" viewBox="0 0 512 512" version="1.1" xmlns="http://www.w3.org/2000/svg" xmlns:xlink="http://www.w3.org/1999/xlink">
    <title>email</title>
    <g id="Page-1" stroke="none" stroke-width="1" fill="none" fill-rule="evenodd">
        <g id="Artboard" transform="translate(-91.000000, -25.000000)">
            <g id="email" transform="translate(91.000000, 25.000000)">
                <circle id="Oval" stroke="#979797" fill="#D8D8D8" cx="256" cy="256" r="255.5"></circle>
                <polygon id="Path" fill="#76777A" fill-rule="nonzero" points="359.285714 164.571429 152.714286 164.571429 256 253.102679"></polygon>
                <path d="M256,274.285714 C253.816965,274.285714 251.705358,273.504464 250.049107,272.080357 L137.142857,175.303571 L137.142857,347.428571 L374.857143,347.428571 L374.857143,175.303571 L261.950893,272.080357 C260.294642,273.504464 258.183035,274.285714 256,274.285714 Z" id="Path" fill="#76777A" fill-rule="nonzero"></path>
                <path d="M256,0 C114.616071,0 0,114.616071 0,256 C0,397.383929 114.616071,512 256,512 C397.383929,512 512,397.383929 512,256 C511.839286,114.683035 397.316965,0.160714286 256,0 Z M393.142857,356.571429 C393.142857,361.620536 389.049107,365.714286 384,365.714286 L128,365.714286 C122.950893,365.714286 118.857143,361.620536 118.857143,356.571429 L118.857143,155.428571 C118.857143,150.379464 122.950893,146.285714 128,146.285714 L384,146.285714 C389.049107,146.285714 393.142857,150.379464 393.142857,155.428571 L393.142857,356.571429 Z" id="Shape" fill="#76777A" fill-rule="nonzero"></path>
            </g>
        </g>
    </g>
</svg>