<svg xmlns="http://www.w3.org/2000/svg" viewBox="-0.04000000000000625 111.82 620.97 349.68"> <svg xmlns="http://www.w3.org/2000/svg" xmlns:xlink="http://www.w3.org/1999/xlink" version="1.1" id="Layer_1" x="69" y="181" viewBox="10.600006103515625 80.97083282470703 338.3999938964844 104.82550811767578" xml:space="preserve" height="138" width="480" preserveAspectRatio="xMinYMin" enable-background="new 0 0 360 360" style="overflow: visible;"><linearGradient id="SVGID_1_" gradientUnits="userSpaceOnUse" x1="79.4934" y1="245.9085" x2="247.9725" y2="105.5091" style=""><stop offset="0" style="stop-color: #CFF090;"></stop><stop offset="9.469432e-02" style="stop-color: #C9EE82;"></stop><stop offset="0.3056" style="stop-color: #BDEB68;"></stop><stop offset="0.5233" style="stop-color: #B5E856;"></stop><stop offset="0.75" style="stop-color: #B1E64B;"></stop><stop offset="1" style="stop-color: #AFE647;"></stop></linearGradient><path class="st0" d="M179.8,147.4c60.9,0,117.5,5.5,164.2,14.9c-44.7-11.6-101.9-18.6-164.2-18.6c-62.3,0-119.5,7-164.2,18.6  C62.4,152.9,118.9,147.4,179.8,147.4z" style="fill: url(#SVGID_1_);"></path><path class="st1" d="M174.5,143.3c5.6-8.7,2.7-18.5,2.7-18.5s-4.9-23.6-52.3-38.7c-4.9-0.9-6,3.1-7,5.9   c-10.2,48,26.8,65.2,52.6,54.9C171.3,146.6,173.3,145.3,174.5,143.3z" style="fill: #ffffff; stroke: #ffffff; stroke-width: 12.8454; stroke-linecap: round; stroke-linejoin: round; stroke-opacity: 0; fill-opacity: 0;"></path><path class="st1" d="M176.3,142.5c-0.7-1.6-3.5-4.1-7.3-3.2c-8.5,2-28.4,7.1-35.4,16c-9,11.4,1.9,18.5,10.4,22.7   c8.5,4.2,18.6,4.3,24.4-4.1C173.4,166.7,180.5,151.4,176.3,142.5z" style="fill: #ffffff; stroke: #ffffff; stroke-width: 12.8454; stroke-linecap: round; stroke-linejoin: round; stroke-opacity: 0; fill-opacity: 0;"></path><path class="st1" d="M183.7,143.3c-5.6-8.7-2.7-18.5-2.7-18.5s4.9-23.6,52.3-38.7c4.9-0.9,6,3.1,7,5.9c10.2,48-26.8,65.2-52.6,54.9   C186.9,146.6,184.9,145.3,183.7,143.3z" style="fill: #ffffff; stroke: #ffffff; stroke-width: 12.8454; stroke-linecap: round; stroke-linejoin: round; stroke-opacity: 0; fill-opacity: 0;"></path><path class="st1" d="M181.9,142.5c0.7-1.6,3.5-4.1,7.3-3.2c8.5,2,28.4,7.1,35.4,16c9,11.4-1.9,18.5-10.4,22.7   c-8.5,4.2-18.6,4.3-24.4-4.1C184.8,166.7,177.7,151.4,181.9,142.5z" style="fill: #ffffff; stroke: #ffffff; stroke-width: 12.8454; stroke-linecap: round; stroke-linejoin: round; stroke-opacity: 0; fill-opacity: 0;"></path><path class="st2" d="M240.2,92c-0.9-2.8-2-6.8-7-5.9c-14.2,4.5-24.6,9.8-32.1,14.9c7.4-4.8,17.3-9.7,30.5-13.9     c4.9-0.9,6,3.1,7,5.9c5.4,25.3-2.4,42-14.7,50.7C237.2,135.5,245.9,118.4,240.2,92z" style="fill: #ffffff; fill-opacity: 0;"></path><path class="st3" d="M240.2,92c-0.9-2.8-2-6.8-7-5.9c-14.2,4.5-24.6,9.8-32.1,14.9c7.4-4.8,17.3-9.7,30.5-13.9     c4.9-0.9,6,3.1,7,5.9c5.4,25.3-2.4,42-14.7,50.7C237.2,135.5,245.9,118.4,240.2,92z" style="fill: none; stroke: #ffffff; stroke-width: 12.8454; stroke-linecap: round; stroke-linejoin: round; stroke-opacity: 0;"></path><path class="st2" d="M120.1,92.5c0.9-2.7,1.9-6.3,6.1-6c-0.4-0.1-0.9-0.3-1.3-0.4c-4.9-0.9-6,3.1-7,5.9     c-7.2,34,9.2,52.5,28.6,56.8C128.2,143.7,113.1,125.3,120.1,92.5z" style="fill: #ffffff; fill-opacity: 0;"></path><path class="st3" d="M120.1,92.5c0.9-2.7,1.9-6.3,6.1-6c-0.4-0.1-0.9-0.3-1.3-0.4c-4.9-0.9-6,3.1-7,5.9     c-7.2,34,9.2,52.5,28.6,56.8C128.2,143.7,113.1,125.3,120.1,92.5z" style="fill: none; stroke: #ffffff; stroke-width: 12.8454; stroke-linecap: round; stroke-linejoin: round; stroke-opacity: 0;"></path><path class="st2" d="M168.7,172.3c-5.9,8.4-16.2,8.3-24.8,4.1c-5.5-2.6-11.9-6.5-13.6-11.8c0.8,6.2,7.8,10.5,13.7,13.4     c8.5,4.2,18.6,4.3,24.4-4.1c3.1-4.6,7.1-12.4,8.6-19.9C175.4,160.9,171.7,168,168.7,172.3z" style="fill: #ffffff; fill-opacity: 0;"></path><path class="st3" d="M168.7,172.3c-5.9,8.4-16.2,8.3-24.8,4.1c-5.5-2.6-11.9-6.5-13.6-11.8c0.8,6.2,7.8,10.5,13.7,13.4     c8.5,4.2,18.6,4.3,24.4-4.1c3.1-4.6,7.1-12.4,8.6-19.9C175.4,160.9,171.7,168,168.7,172.3z" style="fill: none; stroke: #ffffff; stroke-width: 12.8454; stroke-linecap: round; stroke-linejoin: round; stroke-opacity: 0;"></path><path class="st2" d="M214.1,176.3c-8.5,4.2-18.6,4.3-24.4-4.1c-3.8-5.5-8.8-15.7-9.1-24.1c-0.4,8.7,5,20,9.1,25.8     c5.8,8.4,15.9,8.3,24.4,4.1c6.5-3.2,14.4-8.1,13.8-15.3C227.3,169,220.1,173.4,214.1,176.3z" style="fill: #ffffff; fill-opacity: 0;"></path><path class="st3" d="M214.1,176.3c-8.5,4.2-18.6,4.3-24.4-4.1c-3.8-5.5-8.8-15.7-9.1-24.1c-0.4,8.7,5,20,9.1,25.8     c5.8,8.4,15.9,8.3,24.4,4.1c6.5-3.2,14.4-8.1,13.8-15.3C227.3,169,220.1,173.4,214.1,176.3z" style="fill: none; stroke: #ffffff; stroke-width: 12.8454; stroke-linecap: round; stroke-linejoin: round; stroke-opacity: 0;"></path><linearGradient id="SVGID_2_" gradientUnits="userSpaceOnUse" x1="118.6761" y1="89.6626" x2="165.4624" y2="145.3012" style=""><stop offset="0" style="stop-color: #FFE9A7;"></stop><stop offset="1.871252e-02" style="stop-color: #FFE8A3;"></stop><stop offset="0.2006" style="stop-color: #FFE082;"></stop><stop offset="0.3877" style="stop-color: #FFD968;"></stop><stop offset="0.5797" style="stop-color: #FFD556;"></stop><stop offset="0.7796" style="stop-color: #FFD24B;"></stop><stop offset="1" style="stop-color: #FFD147;"></stop></linearGradient><path class="st4" d="M174.5,143.3c5.6-8.7,2.7-18.5,2.7-18.5s-4.9-23.6-52.3-38.7c-4.9-0.9-6,3.1-7,5.9   c-10.2,48,26.8,65.2,52.6,54.9C171.3,146.6,173.3,145.3,174.5,143.3z" style="fill: url(#SVGID_2_);"></path><linearGradient id="SVGID_3_" gradientUnits="userSpaceOnUse" x1="137.0167" y1="176.4733" x2="171.1583" y2="148.0219" style=""><stop offset="0" style="stop-color: #CFF090;"></stop><stop offset="9.469432e-02" style="stop-color: #C9EE82;"></stop><stop offset="0.3056" style="stop-color: #BDEB68;"></stop><stop offset="0.5233" style="stop-color: #B5E856;"></stop><stop offset="0.75" style="stop-color: #B1E64B;"></stop><stop offset="1" style="stop-color: #AFE647;"></stop></linearGradient><path class="st5" d="M176.3,142.5c-0.7-1.6-3.5-4.1-7.3-3.2c-8.5,2-28.4,7.1-35.4,16c-9,11.4,1.9,18.5,10.4,22.7   c8.5,4.2,18.6,4.3,24.4-4.1C173.4,166.7,180.5,151.4,176.3,142.5z" style="fill: url(#SVGID_3_);"></path><linearGradient id="SVGID_4_" gradientUnits="userSpaceOnUse" x1="233.2011" y1="85.6968" x2="197.1626" y2="146.3932" style=""><stop offset="0" style="stop-color: #A6E0EE;"></stop><stop offset="0.2032" style="stop-color: #91D9EA;"></stop><stop offset="0.4524" style="stop-color: #7FD2E6;"></stop><stop offset="0.7128" style="stop-color: #74CEE4;"></stop><stop offset="1" style="stop-color: #70CDE3;"></stop></linearGradient><path class="st6" d="M183.7,143.3c-5.6-8.7-2.7-18.5-2.7-18.5s4.9-23.6,52.3-38.7c4.9-0.9,6,3.1,7,5.9c10.2,48-26.8,65.2-52.6,54.9   C186.9,146.6,184.9,145.3,183.7,143.3z" style="fill: url(#SVGID_4_);"></path><linearGradient id="SVGID_5_" gradientUnits="userSpaceOnUse" x1="219.1595" y1="174.5363" x2="191.9724" y2="152.4078" style=""><stop offset="0" style="stop-color: #FFBEE3;"></stop><stop offset="3.962201e-02" style="stop-color: #FFBBE2;"></stop><stop offset="0.34" style="stop-color: #FFA9D9;"></stop><stop offset="0.6539" style="stop-color: #FF9ED5;"></stop><stop offset="1" style="stop-color: #FF9AD3;"></stop></linearGradient><path class="st7" d="M181.9,142.5c0.7-1.6,3.5-4.1,7.3-3.2c8.5,2,28.4,7.1,35.4,16c9,11.4-1.9,18.5-10.4,22.7   c-8.5,4.2-18.6,4.3-24.4-4.1C184.8,166.7,177.7,151.4,181.9,142.5z" style="fill: url(#SVGID_5_);"></path><linearGradient id="SVGID_6_" gradientUnits="userSpaceOnUse" x1="232.8288" y1="85.5069" x2="195.9771" y2="147.573" style=""><stop offset="0" style="stop-color: #DBF3F8;"></stop><stop offset="0.137" style="stop-color: #C5EBF4;"></stop><stop offset="0.338" style="stop-color: #ABE2EF;"></stop><stop offset="0.5456" style="stop-color: #99DBEB;"></stop><stop offset="0.7617" style="stop-color: #8ED7E9;"></stop><stop offset="1" style="stop-color: #8AD6E8;"></stop></linearGradient><path class="st8" d="M240.2,92c-0.9-2.8-2-6.8-7-5.9c-14.2,4.5-24.6,9.8-32.1,14.9c7.4-4.8,17.3-9.7,30.5-13.9     c4.9-0.9,6,3.1,7,5.9c5.4,25.3-2.4,42-14.7,50.7C237.2,135.5,245.9,118.4,240.2,92z" style="fill: url(#SVGID_6_);"></path><linearGradient id="SVGID_7_" gradientUnits="userSpaceOnUse" x1="119.1827" y1="89.2602" x2="167.0376" y2="146.1694" style=""><stop offset="0" style="stop-color: #FFF4D5;"></stop><stop offset="0.1892" style="stop-color: #FFF0C2;"></stop><stop offset="0.4427" style="stop-color: #FFEBB0;"></stop><stop offset="0.7077" style="stop-color: #FFE9A5;"></stop><stop offset="1" style="stop-color: #FFE8A1;"></stop></linearGradient><path class="st9" d="M120.1,92.5c0.9-2.7,1.9-6.3,6.1-6c-0.4-0.1-0.9-0.3-1.3-0.4c-4.9-0.9-6,3.1-7,5.9     c-7.2,34,9.2,52.5,28.6,56.8C128.2,143.7,113.1,125.3,120.1,92.5z" style="fill: url(#SVGID_7_);"></path><linearGradient id="SVGID_8_" gradientUnits="userSpaceOnUse" x1="136.5514" y1="175.95" x2="171.545" y2="146.7885" style=""><stop offset="0" style="stop-color: #EEFAD8;"></stop><stop offset="0.1604" style="stop-color: #E2F6BD;"></stop><stop offset="0.356" style="stop-color: #D7F3A3;"></stop><stop offset="0.5579" style="stop-color: #CFF091;"></stop><stop offset="0.7682" style="stop-color: #CBEE86;"></stop><stop offset="1" style="stop-color: #C9EE82;"></stop></linearGradient><path class="st10" d="M168.7,172.3c-5.9,8.4-16.2,8.3-24.8,4.1c-5.5-2.6-11.9-6.5-13.6-11.8c0.8,6.2,7.8,10.5,13.7,13.4     c8.5,4.2,18.6,4.3,24.4-4.1c3.1-4.6,7.1-12.4,8.6-19.9C175.4,160.9,171.7,168,168.7,172.3z" style="fill: url(#SVGID_8_);"></path><linearGradient id="SVGID_9_" gradientUnits="userSpaceOnUse" x1="219.5316" y1="174.0149" x2="191.7919" y2="151.4367" style=""><stop offset="0" style="stop-color: #FFDDF0;"></stop><stop offset="0.2471" style="stop-color: #FFD1EB;"></stop><stop offset="0.6048" style="stop-color: #FFC6E6;"></stop><stop offset="1" style="stop-color: #FFC2E5;"></stop></linearGradient><path class="st11" d="M214.1,176.3c-8.5,4.2-18.6,4.3-24.4-4.1c-3.8-5.5-8.8-15.7-9.1-24.1c-0.4,8.7,5,20,9.1,25.8     c5.8,8.4,15.9,8.3,24.4,4.1c6.5-3.2,14.4-8.1,13.8-15.3C227.3,169,220.1,173.4,214.1,176.3z" style="fill: url(#SVGID_9_);"></path><path class="st12" d="M214.8,148c-8.7-4.5-19.8-7.3-25.6-8.6c-3-0.7-5.3,0.7-6.5,2.1c0.3,0.6,0.7,1.2,1.1,1.9c1.2,2,3.2,3.3,4,3.6  C196.2,150.3,205.9,150.7,214.8,148z" style="fill: #8fa3ff; fill-opacity: 1;"></path><path class="st13" d="M169,139.3c-5.8,1.3-16.9,4.2-25.6,8.6c8.9,2.7,18.6,2.3,27.1-1.1c0.8-0.3,2.7-1.6,4-3.6  c0.4-0.6,0.7-1.2,1.1-1.9C174.4,140.1,172,138.6,169,139.3z" style="fill: #90d67e; fill-opacity: 1;"></path></svg> <svg y="340" viewBox="2.1500000953674316 3.6700000762939453 226.7100067138672 51.5" x="180" height="51" width="226" style="overflow: visible;"><g fill="#737373" fill-opacity="1" style=""><path d="M3.45 47.46L7.38 47.46Q7.38 49.42 8.11 50.23Q8.83 51.04 10.35 51.04L10.35 51.04Q10.96 51.04 11.54 50.86Q12.11 50.67 12.54 50.17Q12.96 49.68 13.23 48.80Q13.49 47.92 13.49 46.54L13.49 46.54L13.49 41.77Q12.74 42.74 11.57 43.43Q10.39 44.12 8.66 44.12L8.66 44.12Q8.15 44.12 7.47 44.02Q6.79 43.92 6.06 43.57Q5.34 43.22 4.64 42.51Q3.93 41.79 3.38 40.58Q2.83 39.38 2.49 37.56Q2.15 35.75 2.15 33.18L2.15 33.18L2.15 25.22Q2.15 22.76 2.49 21.04Q2.83 19.31 3.38 18.15Q3.93 16.98 4.65 16.33Q5.36 15.67 6.10 15.33Q6.83 14.99 7.54 14.90Q8.24 14.81 8.79 14.81L8.79 14.81Q9.89 14.81 10.73 15.10Q11.58 15.38 12.21 15.85Q12.83 16.33 13.27 16.92Q13.71 17.51 14.02 18.11L14.02 18.11L14.52 15.12L18.85 15.12L18.85 44.17Q18.85 46.69 18.37 48.72Q17.89 50.76 16.85 52.20Q15.82 53.64 14.23 54.40Q12.63 55.17 10.42 55.17L10.42 55.17Q8.92 55.17 7.60 54.91Q6.28 54.65 5.30 53.98Q4.31 53.31 3.74 52.15Q3.16 51.00 3.16 49.22L3.16 49.22Q3.16 48.91 3.23 48.45Q3.30 47.99 3.45 47.46L3.45 47.46ZM10.55 39.81L10.55 39.81Q11.10 39.81 11.52 39.63Q11.95 39.44 12.29 39.13Q12.63 38.83 12.89 38.43Q13.14 38.03 13.32 37.62L13.32 37.62L13.32 21.07Q12.90 20.15 12.21 19.50Q11.51 18.85 10.52 18.85L10.52 18.85Q9.91 18.85 9.40 19.07Q8.90 19.29 8.53 19.90Q8.15 20.50 7.94 21.57Q7.73 22.63 7.73 24.32L7.73 24.32L7.73 34.28Q7.73 35.97 7.94 37.05Q8.15 38.12 8.53 38.74Q8.90 39.35 9.42 39.58Q9.93 39.81 10.55 39.81ZM25.72 38.32L25.72 15.14L31.28 15.14L31.28 37.88Q31.28 39.88 31.89 40.66Q32.51 41.44 33.70 41.44L33.70 41.44Q34.53 41.44 35.32 40.98Q36.11 40.52 36.75 39.66L36.75 39.66L36.75 15.14L42.31 15.14L42.31 45.40L38.07 45.40L37.52 42.17L37.50 42.17Q36.84 43.20 36.10 43.89Q35.37 44.58 34.56 44.99Q33.76 45.40 32.93 45.57Q32.09 45.75 31.26 45.75L31.26 45.75Q28.60 45.75 27.16 43.90Q25.72 42.06 25.72 38.32L25.72 38.32ZM52.08 10.81L52.08 10.81Q50.54 10.81 49.65 9.89Q48.76 8.96 48.76 7.19L48.76 7.19Q48.76 6.20 48.99 5.53Q49.22 4.86 49.65 4.45Q50.08 4.04 50.69 3.86Q51.31 3.67 52.10 3.67L52.10 3.67Q53.75 3.67 54.60 4.50Q55.46 5.34 55.46 7.19L55.46 7.19Q55.46 8.90 54.59 9.85Q53.72 10.81 52.08 10.81ZM49.20 45.40L49.20 15.14L54.76 15.14L54.76 45.40L49.20 45.40ZM67.36 45.75L67.36 45.75Q66.85 45.75 66.17 45.65Q65.49 45.55 64.77 45.20Q64.04 44.85 63.34 44.14Q62.63 43.44 62.08 42.22Q61.54 41.00 61.19 39.20Q60.85 37.40 60.85 34.83L60.85 34.83L60.85 25.22Q60.85 22.68 61.22 20.92Q61.58 19.16 62.17 18.01Q62.77 16.85 63.50 16.20Q64.24 15.56 64.97 15.25Q65.71 14.94 66.38 14.88Q67.05 14.81 67.49 14.81L67.49 14.81Q68.30 14.81 69.03 15.03Q69.75 15.25 70.35 15.61Q70.94 15.97 71.40 16.42Q71.86 16.88 72.17 17.34L72.17 17.34L72.19 17.31L72.02 13.49L72.02 5.43L77.55 5.43L77.55 45.40L73.22 45.40L72.74 42.58Q72.37 43.18 71.88 43.75Q71.40 44.32 70.74 44.77Q70.08 45.22 69.25 45.48Q68.41 45.75 67.36 45.75ZM69.25 41.44L69.25 41.44Q69.80 41.44 70.23 41.25Q70.65 41.07 70.99 40.77Q71.33 40.47 71.59 40.08Q71.84 39.68 72.02 39.27L72.02 39.27L72.02 21.07Q71.60 20.15 70.91 19.50Q70.21 18.85 69.23 18.85L69.23 18.85Q68.61 18.85 68.10 19.07Q67.60 19.29 67.23 19.90Q66.85 20.50 66.64 21.57Q66.44 22.63 66.44 24.32L66.44 24.32L66.44 35.93Q66.44 37.62 66.64 38.69Q66.85 39.77 67.23 40.37Q67.60 40.98 68.12 41.21Q68.63 41.44 69.25 41.44ZM87.23 10.81L87.23 10.81Q85.69 10.81 84.80 9.89Q83.91 8.96 83.91 7.19L83.91 7.19Q83.91 6.20 84.15 5.53Q84.38 4.86 84.80 4.45Q85.23 4.04 85.85 3.86Q86.46 3.67 87.25 3.67L87.25 3.67Q88.90 3.67 89.76 4.50Q90.62 5.34 90.62 7.19L90.62 7.19Q90.62 8.90 89.75 9.85Q88.88 10.81 87.23 10.81ZM84.35 45.40L84.35 15.14L89.91 15.14L89.91 45.40L84.35 45.40ZM96.71 45.40L96.71 15.14L101.00 15.14L101.50 18.37L101.50 18.39Q102.16 17.36 102.92 16.67Q103.68 15.97 104.49 15.56Q105.31 15.14 106.15 14.96Q107.00 14.79 107.83 14.79L107.83 14.79Q110.49 14.79 111.93 16.64Q113.37 18.50 113.37 22.21L113.37 22.21L113.37 45.40L107.81 45.40L107.81 22.41Q107.81 20.41 107.19 19.63Q106.58 18.85 105.39 18.85L105.39 18.85Q104.56 18.85 103.73 19.40Q102.91 19.95 102.27 20.92L102.27 20.92L102.27 45.40L96.71 45.40ZM120.72 47.46L124.65 47.46Q124.65 49.42 125.38 50.23Q126.10 51.04 127.62 51.04L127.62 51.04Q128.23 51.04 128.81 50.86Q129.38 50.67 129.80 50.17Q130.23 49.68 130.50 48.80Q130.76 47.92 130.76 46.54L130.76 46.54L130.76 41.77Q130.01 42.74 128.84 43.43Q127.66 44.12 125.93 44.12L125.93 44.12Q125.42 44.12 124.74 44.02Q124.06 43.92 123.33 43.57Q122.61 43.22 121.91 42.51Q121.20 41.79 120.65 40.58Q120.10 39.38 119.76 37.56Q119.42 35.75 119.42 33.18L119.42 33.18L119.42 25.22Q119.42 22.76 119.76 21.04Q120.10 19.31 120.65 18.15Q121.20 16.98 121.92 16.33Q122.63 15.67 123.37 15.33Q124.10 14.99 124.81 14.90Q125.51 14.81 126.06 14.81L126.06 14.81Q127.16 14.81 128.00 15.10Q128.85 15.38 129.48 15.85Q130.10 16.33 130.54 16.92Q130.98 17.51 131.29 18.11L131.29 18.11L131.79 15.12L136.12 15.12L136.12 44.17Q136.12 46.69 135.64 48.72Q135.16 50.76 134.12 52.20Q133.09 53.64 131.50 54.40Q129.90 55.17 127.68 55.17L127.68 55.17Q126.19 55.17 124.87 54.91Q123.55 54.65 122.56 53.98Q121.58 53.31 121.00 52.15Q120.43 51.00 120.43 49.22L120.43 49.22Q120.43 48.91 120.50 48.45Q120.57 47.99 120.72 47.46L120.72 47.46ZM127.82 39.81L127.82 39.81Q128.37 39.81 128.79 39.63Q129.22 39.44 129.56 39.13Q129.90 38.83 130.16 38.43Q130.41 38.03 130.58 37.62L130.58 37.62L130.58 21.07Q130.17 20.15 129.48 19.50Q128.78 18.85 127.79 18.85L127.79 18.85Q127.18 18.85 126.67 19.07Q126.17 19.29 125.79 19.90Q125.42 20.50 125.21 21.57Q125.00 22.63 125.00 24.32L125.00 24.32L125.00 34.28Q125.00 35.97 125.21 37.05Q125.42 38.12 125.79 38.74Q126.17 39.35 126.68 39.58Q127.20 39.81 127.82 39.81ZM142.09 41.46L142.09 41.46Q142.09 39.13 143.01 38.12Q143.93 37.11 145.52 37.11L145.52 37.11Q147.16 37.11 148.06 38.19Q148.97 39.27 148.97 41.46L148.97 41.46Q148.97 43.48 148.05 44.59Q147.14 45.70 145.49 45.70L145.49 45.70Q143.93 45.70 143.01 44.63Q142.09 43.55 142.09 41.46ZM154.95 45.40L154.95 5.43L160.51 5.43L160.51 12.55L160.23 17.73Q160.84 16.88 161.56 16.31Q162.27 15.75 163.03 15.41Q163.79 15.07 164.57 14.93Q165.35 14.79 166.12 14.79L166.12 14.79Q168.77 14.79 170.21 16.64Q171.65 18.50 171.65 22.21L171.65 22.21L171.65 45.40L166.09 45.40L166.09 22.41Q166.09 20.41 165.48 19.63Q164.86 18.85 163.68 18.85L163.68 18.85Q162.84 18.85 162.00 19.41Q161.15 19.97 160.51 20.96L160.51 20.96L160.51 45.40L154.95 45.40ZM185.70 45.73L185.70 45.73Q183.75 45.73 182.24 45Q180.74 44.27 179.71 42.74Q178.67 41.20 178.15 38.79Q177.62 36.39 177.62 33.00L177.62 33.00L177.62 27.29Q177.62 24.41 178.05 22.36Q178.48 20.30 179.17 18.91Q179.86 17.51 180.77 16.70Q181.68 15.89 182.65 15.46Q183.62 15.03 184.57 14.91Q185.53 14.79 186.34 14.79L186.34 14.79Q187.84 14.79 189.22 15.24Q190.60 15.69 191.66 16.78Q192.71 17.86 193.34 19.69Q193.97 21.51 193.97 24.24L193.97 24.24Q193.97 25.16 193.91 26.10Q193.86 27.05 193.77 27.96Q193.68 28.87 193.54 29.73Q193.39 30.59 193.24 31.31L193.24 31.31L183.20 31.31L183.20 34.39Q183.20 36.36 183.35 37.72Q183.51 39.07 183.87 39.89Q184.23 40.72 184.86 41.08Q185.48 41.44 186.43 41.44L186.43 41.44Q186.93 41.44 187.42 41.23Q187.90 41.02 188.26 40.54Q188.63 40.06 188.85 39.25Q189.07 38.45 189.07 37.27L189.07 37.27L189.07 36.32L193.70 36.32L193.70 37.49Q193.70 41.79 191.65 43.76Q189.59 45.73 185.70 45.73ZM183.20 27.58L188.78 27.58Q188.80 27.33 188.82 26.93Q188.85 26.52 188.86 26.08Q188.87 25.64 188.87 25.21Q188.87 24.79 188.87 24.48L188.87 24.48Q188.87 21.49 188.17 20.17Q187.46 18.85 186.08 18.85L186.08 18.85Q185.35 18.85 184.80 19.19Q184.25 19.53 183.90 20.34Q183.55 21.14 183.38 22.46Q183.20 23.77 183.20 25.73L183.20 25.73L183.20 27.58ZM199.76 45.40L199.76 5.43L205.31 5.43L205.31 45.40L199.76 45.40ZM217.50 43.40L217.67 47.11L217.67 55.17L212.12 55.17L212.12 15.14L216.47 15.14L216.97 18.33Q217.35 17.71 217.86 17.07Q218.38 16.44 219.07 15.94Q219.76 15.45 220.63 15.13Q221.50 14.81 222.57 14.81L222.57 14.81Q223.04 14.81 223.68 14.90Q224.33 14.99 225.02 15.34Q225.72 15.69 226.41 16.38Q227.10 17.07 227.64 18.28Q228.18 19.49 228.52 21.29Q228.86 23.09 228.86 25.66L228.86 25.66L228.86 34.83Q228.86 37.40 228.52 39.20Q228.18 41.00 227.63 42.21Q227.08 43.42 226.38 44.12Q225.67 44.82 224.95 45.18Q224.22 45.53 223.54 45.63Q222.86 45.73 222.35 45.73L222.35 45.73Q220.60 45.73 219.42 45.04Q218.25 44.36 217.50 43.40L217.50 43.40ZM217.67 20.94L217.67 39.22Q217.85 39.66 218.10 40.06Q218.36 40.45 218.70 40.76Q219.04 41.07 219.47 41.25Q219.89 41.44 220.47 41.44L220.47 41.44Q221.08 41.44 221.59 41.21Q222.09 40.98 222.46 40.37Q222.84 39.77 223.05 38.69Q223.26 37.62 223.26 35.93L223.26 35.93L223.26 24.35Q223.26 22.65 223.05 21.59Q222.84 20.52 222.48 19.91Q222.11 19.29 221.61 19.07Q221.10 18.85 220.49 18.85L220.49 18.85Q219.43 18.85 218.76 19.48Q218.09 20.10 217.67 20.94L217.67 20.94Z" transform="translate(0, 0)"></path></g></svg></svg>