<?xml version="1.0" encoding="UTF-8"?>
<svg width="139px" height="109px" viewBox="0 0 139 109" version="1.1" xmlns="http://www.w3.org/2000/svg" xmlns:xlink="http://www.w3.org/1999/xlink">
    <title>Original Logo</title>
    <defs>
        <linearGradient x1="6.9207143%" y1="5.78635271%" x2="77.9359372%" y2="92.9925357%" id="linearGradient-1">
            <stop stop-color="#FFE9A7" offset="0%"></stop>
            <stop stop-color="#FFE8A3" offset="1.871252%"></stop>
            <stop stop-color="#FFE082" offset="20.06%"></stop>
            <stop stop-color="#FFD968" offset="38.77%"></stop>
            <stop stop-color="#FFD556" offset="57.97%"></stop>
            <stop stop-color="#FFD24B" offset="77.96%"></stop>
            <stop stop-color="#FFD147" offset="100%"></stop>
        </linearGradient>
        <linearGradient x1="14.3481945%" y1="80.7127285%" x2="86.4485797%" y2="27.8187127%" id="linearGradient-2">
            <stop stop-color="#CFF090" offset="0%"></stop>
            <stop stop-color="#C9EE82" offset="9.469432%"></stop>
            <stop stop-color="#BDEB68" offset="30.56%"></stop>
            <stop stop-color="#B5E856" offset="52.33%"></stop>
            <stop stop-color="#B1E64B" offset="75%"></stop>
            <stop stop-color="#AFE647" offset="100%"></stop>
        </linearGradient>
        <linearGradient x1="83.4821376%" y1="-0.42951686%" x2="28.7806094%" y2="94.704102%" id="linearGradient-3">
            <stop stop-color="#A6E0EE" offset="0%"></stop>
            <stop stop-color="#91D9EA" offset="20.32%"></stop>
            <stop stop-color="#7FD2E6" offset="45.24%"></stop>
            <stop stop-color="#74CEE4" offset="71.28%"></stop>
            <stop stop-color="#70CDE3" offset="100%"></stop>
        </linearGradient>
        <linearGradient x1="81.3779356%" y1="77.1116506%" x2="23.9640949%" y2="35.9725422%" id="linearGradient-4">
            <stop stop-color="#FFBEE3" offset="0%"></stop>
            <stop stop-color="#FFBBE2" offset="3.962201%"></stop>
            <stop stop-color="#FFA9D9" offset="34%"></stop>
            <stop stop-color="#FF9ED5" offset="65.39%"></stop>
            <stop stop-color="#FF9AD3" offset="100%"></stop>
        </linearGradient>
        <linearGradient x1="63.8482018%" y1="-0.803643998%" x2="18.6473363%" y2="106.708914%" id="linearGradient-5">
            <stop stop-color="#DBF3F8" offset="0%"></stop>
            <stop stop-color="#C5EBF4" offset="13.7%"></stop>
            <stop stop-color="#ABE2EF" offset="33.8%"></stop>
            <stop stop-color="#99DBEB" offset="54.56%"></stop>
            <stop stop-color="#8ED7E9" offset="76.17%"></stop>
            <stop stop-color="#8AD6E8" offset="100%"></stop>
        </linearGradient>
        <linearGradient x1="40.6629052%" y1="5.23540803%" x2="77.4302662%" y2="95.8130908%" id="linearGradient-6">
            <stop stop-color="#FFF4D5" offset="0%"></stop>
            <stop stop-color="#FFF0C2" offset="18.92%"></stop>
            <stop stop-color="#FFEBB0" offset="44.27%"></stop>
            <stop stop-color="#FFE9A5" offset="70.77%"></stop>
            <stop stop-color="#FFE8A1" offset="100%"></stop>
        </linearGradient>
        <linearGradient x1="13.3862955%" y1="60.5075325%" x2="88.3190578%" y2="24.6771335%" id="linearGradient-7">
            <stop stop-color="#EEFAD8" offset="0%"></stop>
            <stop stop-color="#E2F6BD" offset="16.04%"></stop>
            <stop stop-color="#D7F3A3" offset="35.6%"></stop>
            <stop stop-color="#CFF091" offset="55.79%"></stop>
            <stop stop-color="#CBEE86" offset="76.82%"></stop>
            <stop stop-color="#C9EE82" offset="100%"></stop>
        </linearGradient>
        <linearGradient x1="82.2596716%" y1="63.9496681%" x2="23.6792643%" y2="31.0273986%" id="linearGradient-8">
            <stop stop-color="#FFDDF0" offset="0%"></stop>
            <stop stop-color="#FFD1EB" offset="24.71%"></stop>
            <stop stop-color="#FFC6E6" offset="60.48%"></stop>
            <stop stop-color="#FFC2E5" offset="100%"></stop>
        </linearGradient>
    </defs>
    <g id="Page-1" stroke="none" stroke-width="1" fill="none" fill-rule="evenodd">
        <g id="Artboard" transform="translate(-310.000000, -280.000000)">
            <g id="Layer_1" transform="translate(316.564590, 287.000000)">
                <path d="M58.33541,57.329163 C63.93541,48.629163 61.03541,38.829163 61.03541,38.829163 C61.03541,38.829163 56.13541,15.229163 8.73541002,0.129163046 C3.83541002,-0.770836954 2.73541002,3.22916305 1.73541002,6.02916305 C-8.46458998,54.029163 28.53541,71.229163 54.33541,60.929163 C55.13541,60.629163 57.13541,59.329163 58.33541,57.329163 Z" id="Path" stroke-opacity="0" stroke="#FFFFFF" stroke-width="12.8454" fill-opacity="0" fill="#FFFFFF" fill-rule="nonzero" stroke-linecap="round" stroke-linejoin="round"></path>
                <path d="M60.13541,56.529163 C59.43541,54.929163 56.63541,52.429163 52.83541,53.329163 C44.33541,55.329163 24.43541,60.429163 17.43541,69.329163 C8.43541002,80.729163 19.33541,87.829163 27.83541,92.029163 C36.33541,96.229163 46.43541,96.329163 52.23541,87.929163 C57.23541,80.729163 64.33541,65.429163 60.13541,56.529163 Z" id="Path" stroke-opacity="0" stroke="#FFFFFF" stroke-width="12.8454" fill-opacity="0" fill="#FFFFFF" fill-rule="nonzero" stroke-linecap="round" stroke-linejoin="round"></path>
                <path d="M67.53541,57.329163 C61.93541,48.629163 64.83541,38.829163 64.83541,38.829163 C64.83541,38.829163 69.73541,15.229163 117.13541,0.129163046 C122.03541,-0.770836954 123.13541,3.22916305 124.13541,6.02916305 C134.33541,54.029163 97.33541,71.229163 71.53541,60.929163 C70.73541,60.629163 68.73541,59.329163 67.53541,57.329163 Z" id="Path" stroke-opacity="0" stroke="#FFFFFF" stroke-width="12.8454" fill-opacity="0" fill="#FFFFFF" fill-rule="nonzero" stroke-linecap="round" stroke-linejoin="round"></path>
                <path d="M65.73541,56.529163 C66.43541,54.929163 69.23541,52.429163 73.03541,53.329163 C81.53541,55.329163 101.43541,60.429163 108.43541,69.329163 C117.43541,80.729163 106.53541,87.829163 98.03541,92.029163 C89.53541,96.229163 79.43541,96.329163 73.63541,87.929163 C68.63541,80.729163 61.53541,65.429163 65.73541,56.529163 Z" id="Path" stroke-opacity="0" stroke="#FFFFFF" stroke-width="12.8454" fill-opacity="0" fill="#FFFFFF" fill-rule="nonzero" stroke-linecap="round" stroke-linejoin="round"></path>
                <path d="M124.03541,6.02916305 C123.13541,3.22916305 122.03541,-0.770836954 117.03541,0.129163046 C102.83541,4.62916305 92.43541,9.92916305 84.93541,15.029163 C92.33541,10.229163 102.23541,5.32916305 115.43541,1.12916305 C120.33541,0.229163046 121.43541,4.22916305 122.43541,7.02916305 C127.83541,32.329163 120.03541,49.029163 107.73541,57.729163 C121.03541,49.529163 129.73541,32.429163 124.03541,6.02916305 Z" id="Path" fill-opacity="0" fill="#FFFFFF" fill-rule="nonzero"></path>
                <path d="M124.03541,6.02916305 C123.13541,3.22916305 122.03541,-0.770836954 117.03541,0.129163046 C102.83541,4.62916305 92.43541,9.92916305 84.93541,15.029163 C92.33541,10.229163 102.23541,5.32916305 115.43541,1.12916305 C120.33541,0.229163046 121.43541,4.22916305 122.43541,7.02916305 C127.83541,32.329163 120.03541,49.029163 107.73541,57.729163 C121.03541,49.529163 129.73541,32.429163 124.03541,6.02916305 Z" id="Path" stroke-opacity="0" stroke="#FFFFFF" stroke-width="12.8454" stroke-linecap="round" stroke-linejoin="round"></path>
                <path d="M3.93541002,6.52916305 C4.83541002,3.82916305 5.83541002,0.229163046 10.03541,0.529163046 C9.63541002,0.429163046 9.13541002,0.229163046 8.73541002,0.129163046 C3.83541002,-0.770836954 2.73541002,3.22916305 1.73541002,6.02916305 C-5.46458998,40.029163 10.93541,58.529163 30.33541,62.829163 C12.03541,57.729163 -3.06458998,39.329163 3.93541002,6.52916305 Z" id="Path" fill-opacity="0" fill="#FFFFFF" fill-rule="nonzero"></path>
                <path d="M3.93541002,6.52916305 C4.83541002,3.82916305 5.83541002,0.229163046 10.03541,0.529163046 C9.63541002,0.429163046 9.13541002,0.229163046 8.73541002,0.129163046 C3.83541002,-0.770836954 2.73541002,3.22916305 1.73541002,6.02916305 C-5.46458998,40.029163 10.93541,58.529163 30.33541,62.829163 C12.03541,57.729163 -3.06458998,39.329163 3.93541002,6.52916305 Z" id="Path" stroke-opacity="0" stroke="#FFFFFF" stroke-width="12.8454" stroke-linecap="round" stroke-linejoin="round"></path>
                <path d="M52.53541,86.329163 C46.63541,94.729163 36.33541,94.629163 27.73541,90.429163 C22.23541,87.829163 15.83541,83.929163 14.13541,78.629163 C14.93541,84.829163 21.93541,89.129163 27.83541,92.029163 C36.33541,96.229163 46.43541,96.329163 52.23541,87.929163 C55.33541,83.329163 59.33541,75.529163 60.83541,68.029163 C59.23541,74.929163 55.53541,82.029163 52.53541,86.329163 Z" id="Path" fill-opacity="0" fill="#FFFFFF" fill-rule="nonzero"></path>
                <path d="M52.53541,86.329163 C46.63541,94.729163 36.33541,94.629163 27.73541,90.429163 C22.23541,87.829163 15.83541,83.929163 14.13541,78.629163 C14.93541,84.829163 21.93541,89.129163 27.83541,92.029163 C36.33541,96.229163 46.43541,96.329163 52.23541,87.929163 C55.33541,83.329163 59.33541,75.529163 60.83541,68.029163 C59.23541,74.929163 55.53541,82.029163 52.53541,86.329163 Z" id="Path" stroke-opacity="0" stroke="#FFFFFF" stroke-width="12.8454" stroke-linecap="round" stroke-linejoin="round"></path>
                <path d="M97.93541,90.329163 C89.43541,94.529163 79.33541,94.629163 73.53541,86.229163 C69.73541,80.729163 64.73541,70.529163 64.43541,62.129163 C64.03541,70.829163 69.43541,82.129163 73.53541,87.929163 C79.33541,96.329163 89.43541,96.229163 97.93541,92.029163 C104.43541,88.829163 112.33541,83.929163 111.73541,76.729163 C111.13541,83.029163 103.93541,87.429163 97.93541,90.329163 Z" id="Path" fill-opacity="0" fill="#FFFFFF" fill-rule="nonzero"></path>
                <path d="M97.93541,90.329163 C89.43541,94.529163 79.33541,94.629163 73.53541,86.229163 C69.73541,80.729163 64.73541,70.529163 64.43541,62.129163 C64.03541,70.829163 69.43541,82.129163 73.53541,87.929163 C79.33541,96.329163 89.43541,96.229163 97.93541,92.029163 C104.43541,88.829163 112.33541,83.929163 111.73541,76.729163 C111.13541,83.029163 103.93541,87.429163 97.93541,90.329163 Z" id="Path" stroke-opacity="0" stroke="#FFFFFF" stroke-width="12.8454" stroke-linecap="round" stroke-linejoin="round"></path>
                <path d="M58.33541,57.329163 C63.93541,48.629163 61.03541,38.829163 61.03541,38.829163 C61.03541,38.829163 56.13541,15.229163 8.73541002,0.129163046 C3.83541002,-0.770836954 2.73541002,3.22916305 1.73541002,6.02916305 C-8.46458998,54.029163 28.53541,71.229163 54.33541,60.929163 C55.13541,60.629163 57.13541,59.329163 58.33541,57.329163 Z" id="Path" fill="url(#linearGradient-1)" fill-rule="nonzero"></path>
                <path d="M60.13541,56.529163 C59.43541,54.929163 56.63541,52.429163 52.83541,53.329163 C44.33541,55.329163 24.43541,60.429163 17.43541,69.329163 C8.43541002,80.729163 19.33541,87.829163 27.83541,92.029163 C36.33541,96.229163 46.43541,96.329163 52.23541,87.929163 C57.23541,80.729163 64.33541,65.429163 60.13541,56.529163 Z" id="Path" fill="url(#linearGradient-2)" fill-rule="nonzero"></path>
                <path d="M67.53541,57.329163 C61.93541,48.629163 64.83541,38.829163 64.83541,38.829163 C64.83541,38.829163 69.73541,15.229163 117.13541,0.129163046 C122.03541,-0.770836954 123.13541,3.22916305 124.13541,6.02916305 C134.33541,54.029163 97.33541,71.229163 71.53541,60.929163 C70.73541,60.629163 68.73541,59.329163 67.53541,57.329163 Z" id="Path" fill="url(#linearGradient-3)" fill-rule="nonzero"></path>
                <path d="M65.73541,56.529163 C66.43541,54.929163 69.23541,52.429163 73.03541,53.329163 C81.53541,55.329163 101.43541,60.429163 108.43541,69.329163 C117.43541,80.729163 106.53541,87.829163 98.03541,92.029163 C89.53541,96.229163 79.43541,96.329163 73.63541,87.929163 C68.63541,80.729163 61.53541,65.429163 65.73541,56.529163 Z" id="Path" fill="url(#linearGradient-4)" fill-rule="nonzero"></path>
                <path d="M124.03541,6.02916305 C123.13541,3.22916305 122.03541,-0.770836954 117.03541,0.129163046 C102.83541,4.62916305 92.43541,9.92916305 84.93541,15.029163 C92.33541,10.229163 102.23541,5.32916305 115.43541,1.12916305 C120.33541,0.229163046 121.43541,4.22916305 122.43541,7.02916305 C127.83541,32.329163 120.03541,49.029163 107.73541,57.729163 C121.03541,49.529163 129.73541,32.429163 124.03541,6.02916305 Z" id="Path" fill="url(#linearGradient-5)" fill-rule="nonzero"></path>
                <path d="M3.93541002,6.52916305 C4.83541002,3.82916305 5.83541002,0.229163046 10.03541,0.529163046 C9.63541002,0.429163046 9.13541002,0.229163046 8.73541002,0.129163046 C3.83541002,-0.770836954 2.73541002,3.22916305 1.73541002,6.02916305 C-5.46458998,40.029163 10.93541,58.529163 30.33541,62.829163 C12.03541,57.729163 -3.06458998,39.329163 3.93541002,6.52916305 Z" id="Path" fill="url(#linearGradient-6)" fill-rule="nonzero"></path>
                <path d="M52.53541,86.329163 C46.63541,94.729163 36.33541,94.629163 27.73541,90.429163 C22.23541,87.829163 15.83541,83.929163 14.13541,78.629163 C14.93541,84.829163 21.93541,89.129163 27.83541,92.029163 C36.33541,96.229163 46.43541,96.329163 52.23541,87.929163 C55.33541,83.329163 59.33541,75.529163 60.83541,68.029163 C59.23541,74.929163 55.53541,82.029163 52.53541,86.329163 Z" id="Path" fill="url(#linearGradient-7)" fill-rule="nonzero"></path>
                <path d="M97.93541,90.329163 C89.43541,94.529163 79.33541,94.629163 73.53541,86.229163 C69.73541,80.729163 64.73541,70.529163 64.43541,62.129163 C64.03541,70.829163 69.43541,82.129163 73.53541,87.929163 C79.33541,96.329163 89.43541,96.229163 97.93541,92.029163 C104.43541,88.829163 112.33541,83.929163 111.73541,76.729163 C111.13541,83.029163 103.93541,87.429163 97.93541,90.329163 Z" id="Path" fill="url(#linearGradient-8)" fill-rule="nonzero"></path>
                <path d="M98.63541,62.029163 C89.93541,57.529163 78.83541,54.729163 73.03541,53.429163 C70.03541,52.729163 67.73541,54.129163 66.53541,55.529163 C66.83541,56.129163 67.23541,56.729163 67.63541,57.429163 C68.83541,59.429163 70.83541,60.729163 71.63541,61.029163 C80.03541,64.329163 89.73541,64.729163 98.63541,62.029163 Z" id="Path" fill="#8FA3FF" fill-rule="nonzero"></path>
                <path d="M52.83541,53.329163 C47.03541,54.629163 35.93541,57.529163 27.23541,61.929163 C36.13541,64.629163 45.83541,64.229163 54.33541,60.829163 C55.13541,60.529163 57.03541,59.229163 58.33541,57.229163 C58.73541,56.629163 59.03541,56.029163 59.43541,55.329163 C58.23541,54.129163 55.83541,52.629163 52.83541,53.329163 Z" id="Path" fill="#90D67E" fill-rule="nonzero"></path>
            </g>
        </g>
    </g>
</svg>