<?xml version="1.0" encoding="UTF-8"?>
<svg width="329px" height="165px" viewBox="0 0 329 165" version="1.1" xmlns="http://www.w3.org/2000/svg" xmlns:xlink="http://www.w3.org/1999/xlink">
    <title>Original Logo</title>
    <defs>
        <linearGradient x1="19.4559683%" y1="51.6023674%" x2="70.7589829%" y2="49.1809375%" id="linearGradient-1">
            <stop stop-color="#CFF090" offset="0%"></stop>
            <stop stop-color="#C9EE82" offset="9.469432%"></stop>
            <stop stop-color="#BDEB68" offset="30.56%"></stop>
            <stop stop-color="#B5E856" offset="52.33%"></stop>
            <stop stop-color="#B1E64B" offset="75%"></stop>
            <stop stop-color="#AFE647" offset="100%"></stop>
        </linearGradient>
        <linearGradient x1="6.9207143%" y1="5.78635271%" x2="77.9359372%" y2="92.9925357%" id="linearGradient-2">
            <stop stop-color="#FFE9A7" offset="0%"></stop>
            <stop stop-color="#FFE8A3" offset="1.871252%"></stop>
            <stop stop-color="#FFE082" offset="20.06%"></stop>
            <stop stop-color="#FFD968" offset="38.77%"></stop>
            <stop stop-color="#FFD556" offset="57.97%"></stop>
            <stop stop-color="#FFD24B" offset="77.96%"></stop>
            <stop stop-color="#FFD147" offset="100%"></stop>
        </linearGradient>
        <linearGradient x1="14.3481945%" y1="80.7127285%" x2="86.4485797%" y2="27.8187127%" id="linearGradient-3">
            <stop stop-color="#CFF090" offset="0%"></stop>
            <stop stop-color="#C9EE82" offset="9.469432%"></stop>
            <stop stop-color="#BDEB68" offset="30.56%"></stop>
            <stop stop-color="#B5E856" offset="52.33%"></stop>
            <stop stop-color="#B1E64B" offset="75%"></stop>
            <stop stop-color="#AFE647" offset="100%"></stop>
        </linearGradient>
        <linearGradient x1="83.4821376%" y1="-0.42951686%" x2="28.7806094%" y2="94.704102%" id="linearGradient-4">
            <stop stop-color="#A6E0EE" offset="0%"></stop>
            <stop stop-color="#91D9EA" offset="20.32%"></stop>
            <stop stop-color="#7FD2E6" offset="45.24%"></stop>
            <stop stop-color="#74CEE4" offset="71.28%"></stop>
            <stop stop-color="#70CDE3" offset="100%"></stop>
        </linearGradient>
        <linearGradient x1="81.3779356%" y1="77.1116506%" x2="23.9640949%" y2="35.9725422%" id="linearGradient-5">
            <stop stop-color="#FFBEE3" offset="0%"></stop>
            <stop stop-color="#FFBBE2" offset="3.962201%"></stop>
            <stop stop-color="#FFA9D9" offset="34%"></stop>
            <stop stop-color="#FF9ED5" offset="65.39%"></stop>
            <stop stop-color="#FF9AD3" offset="100%"></stop>
        </linearGradient>
        <linearGradient x1="63.8482018%" y1="-0.803643998%" x2="18.6473363%" y2="106.708914%" id="linearGradient-6">
            <stop stop-color="#DBF3F8" offset="0%"></stop>
            <stop stop-color="#C5EBF4" offset="13.7%"></stop>
            <stop stop-color="#ABE2EF" offset="33.8%"></stop>
            <stop stop-color="#99DBEB" offset="54.56%"></stop>
            <stop stop-color="#8ED7E9" offset="76.17%"></stop>
            <stop stop-color="#8AD6E8" offset="100%"></stop>
        </linearGradient>
        <linearGradient x1="40.6629052%" y1="5.23540803%" x2="77.4302662%" y2="95.8130908%" id="linearGradient-7">
            <stop stop-color="#FFF4D5" offset="0%"></stop>
            <stop stop-color="#FFF0C2" offset="18.92%"></stop>
            <stop stop-color="#FFEBB0" offset="44.27%"></stop>
            <stop stop-color="#FFE9A5" offset="70.77%"></stop>
            <stop stop-color="#FFE8A1" offset="100%"></stop>
        </linearGradient>
        <linearGradient x1="13.3862955%" y1="60.5075325%" x2="88.3190578%" y2="24.6771335%" id="linearGradient-8">
            <stop stop-color="#EEFAD8" offset="0%"></stop>
            <stop stop-color="#E2F6BD" offset="16.04%"></stop>
            <stop stop-color="#D7F3A3" offset="35.6%"></stop>
            <stop stop-color="#CFF091" offset="55.79%"></stop>
            <stop stop-color="#CBEE86" offset="76.82%"></stop>
            <stop stop-color="#C9EE82" offset="100%"></stop>
        </linearGradient>
        <linearGradient x1="82.2596716%" y1="63.9496681%" x2="23.6792643%" y2="31.0273986%" id="linearGradient-9">
            <stop stop-color="#FFDDF0" offset="0%"></stop>
            <stop stop-color="#FFD1EB" offset="24.71%"></stop>
            <stop stop-color="#FFC6E6" offset="60.48%"></stop>
            <stop stop-color="#FFC2E5" offset="100%"></stop>
        </linearGradient>
    </defs>
    <g id="Page-1" stroke="none" stroke-width="1" fill="none" fill-rule="evenodd">
        <g id="Artboard" transform="translate(-216.000000, -280.000000)">
            <g id="Original-Logo" transform="translate(216.000000, 287.000000)">
                <g id="Layer_1">
                    <path d="M164.2,61.429163 C225.1,61.429163 281.7,66.929163 328.4,76.329163 C283.7,64.729163 226.5,57.729163 164.2,57.729163 C101.9,57.729163 44.7,64.729163 0,76.329163 C46.8,66.929163 103.3,61.429163 164.2,61.429163 Z" id="Path" fill="url(#linearGradient-1)" fill-rule="nonzero"></path>
                    <path d="M158.9,57.329163 C164.5,48.629163 161.6,38.829163 161.6,38.829163 C161.6,38.829163 156.7,15.229163 109.3,0.129163046 C104.4,-0.770836954 103.3,3.22916305 102.3,6.02916305 C92.1,54.029163 129.1,71.229163 154.9,60.929163 C155.7,60.629163 157.7,59.329163 158.9,57.329163 Z" id="Path" stroke-opacity="0" stroke="#FFFFFF" stroke-width="12.8454" fill-opacity="0" fill="#FFFFFF" fill-rule="nonzero" stroke-linecap="round" stroke-linejoin="round"></path>
                    <path d="M160.7,56.529163 C160,54.929163 157.2,52.429163 153.4,53.329163 C144.9,55.329163 125,60.429163 118,69.329163 C109,80.729163 119.9,87.829163 128.4,92.029163 C136.9,96.229163 147,96.329163 152.8,87.929163 C157.8,80.729163 164.9,65.429163 160.7,56.529163 Z" id="Path" stroke-opacity="0" stroke="#FFFFFF" stroke-width="12.8454" fill-opacity="0" fill="#FFFFFF" fill-rule="nonzero" stroke-linecap="round" stroke-linejoin="round"></path>
                    <path d="M168.1,57.329163 C162.5,48.629163 165.4,38.829163 165.4,38.829163 C165.4,38.829163 170.3,15.229163 217.7,0.129163046 C222.6,-0.770836954 223.7,3.22916305 224.7,6.02916305 C234.9,54.029163 197.9,71.229163 172.1,60.929163 C171.3,60.629163 169.3,59.329163 168.1,57.329163 Z" id="Path" stroke-opacity="0" stroke="#FFFFFF" stroke-width="12.8454" fill-opacity="0" fill="#FFFFFF" fill-rule="nonzero" stroke-linecap="round" stroke-linejoin="round"></path>
                    <path d="M166.3,56.529163 C167,54.929163 169.8,52.429163 173.6,53.329163 C182.1,55.329163 202,60.429163 209,69.329163 C218,80.729163 207.1,87.829163 198.6,92.029163 C190.1,96.229163 180,96.329163 174.2,87.929163 C169.2,80.729163 162.1,65.429163 166.3,56.529163 Z" id="Path" stroke-opacity="0" stroke="#FFFFFF" stroke-width="12.8454" fill-opacity="0" fill="#FFFFFF" fill-rule="nonzero" stroke-linecap="round" stroke-linejoin="round"></path>
                    <path d="M224.6,6.02916305 C223.7,3.22916305 222.6,-0.770836954 217.6,0.129163046 C203.4,4.62916305 193,9.92916305 185.5,15.029163 C192.9,10.229163 202.8,5.32916305 216,1.12916305 C220.9,0.229163046 222,4.22916305 223,7.02916305 C228.4,32.329163 220.6,49.029163 208.3,57.729163 C221.6,49.529163 230.3,32.429163 224.6,6.02916305 Z" id="Path" fill-opacity="0" fill="#FFFFFF" fill-rule="nonzero"></path>
                    <path d="M224.6,6.02916305 C223.7,3.22916305 222.6,-0.770836954 217.6,0.129163046 C203.4,4.62916305 193,9.92916305 185.5,15.029163 C192.9,10.229163 202.8,5.32916305 216,1.12916305 C220.9,0.229163046 222,4.22916305 223,7.02916305 C228.4,32.329163 220.6,49.029163 208.3,57.729163 C221.6,49.529163 230.3,32.429163 224.6,6.02916305 Z" id="Path" stroke-opacity="0" stroke="#FFFFFF" stroke-width="12.8454" stroke-linecap="round" stroke-linejoin="round"></path>
                    <path d="M104.5,6.52916305 C105.4,3.82916305 106.4,0.229163046 110.6,0.529163046 C110.2,0.429163046 109.7,0.229163046 109.3,0.129163046 C104.4,-0.770836954 103.3,3.22916305 102.3,6.02916305 C95.1,40.029163 111.5,58.529163 130.9,62.829163 C112.6,57.729163 97.5,39.329163 104.5,6.52916305 Z" id="Path" fill-opacity="0" fill="#FFFFFF" fill-rule="nonzero"></path>
                    <path d="M104.5,6.52916305 C105.4,3.82916305 106.4,0.229163046 110.6,0.529163046 C110.2,0.429163046 109.7,0.229163046 109.3,0.129163046 C104.4,-0.770836954 103.3,3.22916305 102.3,6.02916305 C95.1,40.029163 111.5,58.529163 130.9,62.829163 C112.6,57.729163 97.5,39.329163 104.5,6.52916305 Z" id="Path" stroke-opacity="0" stroke="#FFFFFF" stroke-width="12.8454" stroke-linecap="round" stroke-linejoin="round"></path>
                    <path d="M153.1,86.329163 C147.2,94.729163 136.9,94.629163 128.3,90.429163 C122.8,87.829163 116.4,83.929163 114.7,78.629163 C115.5,84.829163 122.5,89.129163 128.4,92.029163 C136.9,96.229163 147,96.329163 152.8,87.929163 C155.9,83.329163 159.9,75.529163 161.4,68.029163 C159.8,74.929163 156.1,82.029163 153.1,86.329163 Z" id="Path" fill-opacity="0" fill="#FFFFFF" fill-rule="nonzero"></path>
                    <path d="M153.1,86.329163 C147.2,94.729163 136.9,94.629163 128.3,90.429163 C122.8,87.829163 116.4,83.929163 114.7,78.629163 C115.5,84.829163 122.5,89.129163 128.4,92.029163 C136.9,96.229163 147,96.329163 152.8,87.929163 C155.9,83.329163 159.9,75.529163 161.4,68.029163 C159.8,74.929163 156.1,82.029163 153.1,86.329163 Z" id="Path" stroke-opacity="0" stroke="#FFFFFF" stroke-width="12.8454" stroke-linecap="round" stroke-linejoin="round"></path>
                    <path d="M198.5,90.329163 C190,94.529163 179.9,94.629163 174.1,86.229163 C170.3,80.729163 165.3,70.529163 165,62.129163 C164.6,70.829163 170,82.129163 174.1,87.929163 C179.9,96.329163 190,96.229163 198.5,92.029163 C205,88.829163 212.9,83.929163 212.3,76.729163 C211.7,83.029163 204.5,87.429163 198.5,90.329163 Z" id="Path" fill-opacity="0" fill="#FFFFFF" fill-rule="nonzero"></path>
                    <path d="M198.5,90.329163 C190,94.529163 179.9,94.629163 174.1,86.229163 C170.3,80.729163 165.3,70.529163 165,62.129163 C164.6,70.829163 170,82.129163 174.1,87.929163 C179.9,96.329163 190,96.229163 198.5,92.029163 C205,88.829163 212.9,83.929163 212.3,76.729163 C211.7,83.029163 204.5,87.429163 198.5,90.329163 Z" id="Path" stroke-opacity="0" stroke="#FFFFFF" stroke-width="12.8454" stroke-linecap="round" stroke-linejoin="round"></path>
                    <path d="M158.9,57.329163 C164.5,48.629163 161.6,38.829163 161.6,38.829163 C161.6,38.829163 156.7,15.229163 109.3,0.129163046 C104.4,-0.770836954 103.3,3.22916305 102.3,6.02916305 C92.1,54.029163 129.1,71.229163 154.9,60.929163 C155.7,60.629163 157.7,59.329163 158.9,57.329163 Z" id="Path" fill="url(#linearGradient-2)" fill-rule="nonzero"></path>
                    <path d="M160.7,56.529163 C160,54.929163 157.2,52.429163 153.4,53.329163 C144.9,55.329163 125,60.429163 118,69.329163 C109,80.729163 119.9,87.829163 128.4,92.029163 C136.9,96.229163 147,96.329163 152.8,87.929163 C157.8,80.729163 164.9,65.429163 160.7,56.529163 Z" id="Path" fill="url(#linearGradient-3)" fill-rule="nonzero"></path>
                    <path d="M168.1,57.329163 C162.5,48.629163 165.4,38.829163 165.4,38.829163 C165.4,38.829163 170.3,15.229163 217.7,0.129163046 C222.6,-0.770836954 223.7,3.22916305 224.7,6.02916305 C234.9,54.029163 197.9,71.229163 172.1,60.929163 C171.3,60.629163 169.3,59.329163 168.1,57.329163 Z" id="Path" fill="url(#linearGradient-4)" fill-rule="nonzero"></path>
                    <path d="M166.3,56.529163 C167,54.929163 169.8,52.429163 173.6,53.329163 C182.1,55.329163 202,60.429163 209,69.329163 C218,80.729163 207.1,87.829163 198.6,92.029163 C190.1,96.229163 180,96.329163 174.2,87.929163 C169.2,80.729163 162.1,65.429163 166.3,56.529163 Z" id="Path" fill="url(#linearGradient-5)" fill-rule="nonzero"></path>
                    <path d="M224.6,6.02916305 C223.7,3.22916305 222.6,-0.770836954 217.6,0.129163046 C203.4,4.62916305 193,9.92916305 185.5,15.029163 C192.9,10.229163 202.8,5.32916305 216,1.12916305 C220.9,0.229163046 222,4.22916305 223,7.02916305 C228.4,32.329163 220.6,49.029163 208.3,57.729163 C221.6,49.529163 230.3,32.429163 224.6,6.02916305 Z" id="Path" fill="url(#linearGradient-6)" fill-rule="nonzero"></path>
                    <path d="M104.5,6.52916305 C105.4,3.82916305 106.4,0.229163046 110.6,0.529163046 C110.2,0.429163046 109.7,0.229163046 109.3,0.129163046 C104.4,-0.770836954 103.3,3.22916305 102.3,6.02916305 C95.1,40.029163 111.5,58.529163 130.9,62.829163 C112.6,57.729163 97.5,39.329163 104.5,6.52916305 Z" id="Path" fill="url(#linearGradient-7)" fill-rule="nonzero"></path>
                    <path d="M153.1,86.329163 C147.2,94.729163 136.9,94.629163 128.3,90.429163 C122.8,87.829163 116.4,83.929163 114.7,78.629163 C115.5,84.829163 122.5,89.129163 128.4,92.029163 C136.9,96.229163 147,96.329163 152.8,87.929163 C155.9,83.329163 159.9,75.529163 161.4,68.029163 C159.8,74.929163 156.1,82.029163 153.1,86.329163 Z" id="Path" fill="url(#linearGradient-8)" fill-rule="nonzero"></path>
                    <path d="M198.5,90.329163 C190,94.529163 179.9,94.629163 174.1,86.229163 C170.3,80.729163 165.3,70.529163 165,62.129163 C164.6,70.829163 170,82.129163 174.1,87.929163 C179.9,96.329163 190,96.229163 198.5,92.029163 C205,88.829163 212.9,83.929163 212.3,76.729163 C211.7,83.029163 204.5,87.429163 198.5,90.329163 Z" id="Path" fill="url(#linearGradient-9)" fill-rule="nonzero"></path>
                    <path d="M199.2,62.029163 C190.5,57.529163 179.4,54.729163 173.6,53.429163 C170.6,52.729163 168.3,54.129163 167.1,55.529163 C167.4,56.129163 167.8,56.729163 168.2,57.429163 C169.4,59.429163 171.4,60.729163 172.2,61.029163 C180.6,64.329163 190.3,64.729163 199.2,62.029163 Z" id="Path" fill="#8FA3FF" fill-rule="nonzero"></path>
                    <path d="M153.4,53.329163 C147.6,54.629163 136.5,57.529163 127.8,61.929163 C136.7,64.629163 146.4,64.229163 154.9,60.829163 C155.7,60.529163 157.6,59.229163 158.9,57.229163 C159.3,56.629163 159.6,56.029163 160,55.329163 C158.8,54.129163 156.4,52.629163 153.4,53.329163 Z" id="Path" fill="#90D67E" fill-rule="nonzero"></path>
                </g>
                <g id="Group" transform="translate(50.550000, 105.699163)" fill="#737373" fill-rule="nonzero">
                    <g transform="translate(0.000000, 0.000000)" id="Shape">
                        <path d="M1.3,43.79 L5.23,43.79 C5.23,45.0966667 5.47333333,46.02 5.96,46.56 C6.44,47.1 7.18666667,47.37 8.2,47.37 L8.2,47.37 C8.60666667,47.37 9.00333333,47.31 9.39,47.19 C9.77,47.0633333 10.1033333,46.8333333 10.39,46.5 C10.67,46.1733333 10.9,45.7166667 11.08,45.13 C11.2533333,44.5433333 11.34,43.79 11.34,42.87 L11.34,42.87 L11.34,38.1 C10.84,38.7466667 10.2,39.3 9.42,39.76 C8.63333333,40.22 7.66333333,40.45 6.51,40.45 L6.51,40.45 C6.17,40.45 5.77333333,40.4166667 5.32,40.35 C4.86666667,40.2833333 4.39666667,40.1333333 3.91,39.9 C3.43,39.6666667 2.95666667,39.3133333 2.49,38.84 C2.01666667,38.36 1.59666667,37.7166667 1.23,36.91 C0.863333333,36.11 0.566666667,35.1033333 0.34,33.89 C0.113333333,32.6833333 0,31.2233333 0,29.51 L0,29.51 L0,21.55 C0,19.91 0.113333333,18.5166667 0.34,17.37 C0.566666667,16.2166667 0.863333333,15.2533333 1.23,14.48 C1.59666667,13.7 2.02,13.0933333 2.5,12.66 C2.97333333,12.22 3.45666667,11.8866667 3.95,11.66 C4.43666667,11.4333333 4.91666667,11.29 5.39,11.23 C5.85666667,11.17 6.27333333,11.14 6.64,11.14 L6.64,11.14 C7.37333333,11.14 8.02,11.2366667 8.58,11.43 C9.14666667,11.6166667 9.64,11.8666667 10.06,12.18 C10.4733333,12.5 10.8266667,12.8566667 11.12,13.25 C11.4133333,13.6433333 11.6633333,14.04 11.87,14.44 L11.87,14.44 L12.37,11.45 L16.7,11.45 L16.7,40.5 C16.7,42.18 16.54,43.6966667 16.22,45.05 C15.9,46.41 15.3933333,47.57 14.7,48.53 C14.0133333,49.49 13.14,50.2233333 12.08,50.73 C11.0133333,51.2433333 9.74333333,51.5 8.27,51.5 L8.27,51.5 C7.27,51.5 6.33,51.4133333 5.45,51.24 C4.57,51.0666667 3.80333333,50.7566667 3.15,50.31 C2.49,49.8633333 1.97,49.2533333 1.59,48.48 C1.20333333,47.7133333 1.01,46.7366667 1.01,45.55 L1.01,45.55 C1.01,45.3433333 1.03333333,45.0866667 1.08,44.78 C1.12666667,44.4733333 1.2,44.1433333 1.3,43.79 L1.3,43.79 Z M8.4,36.14 L8.4,36.14 C8.76666667,36.14 9.09,36.08 9.37,35.96 C9.65666667,35.8333333 9.91333333,35.6666667 10.14,35.46 C10.3666667,35.26 10.5666667,35.0266667 10.74,34.76 C10.9066667,34.4933333 11.05,34.2233333 11.17,33.95 L11.17,33.95 L11.17,17.4 C10.89,16.7866667 10.52,16.2633333 10.06,15.83 C9.59333333,15.3966667 9.03,15.18 8.37,15.18 L8.37,15.18 C7.96333333,15.18 7.59,15.2533333 7.25,15.4 C6.91666667,15.5466667 6.62666667,15.8233333 6.38,16.23 C6.12666667,16.63 5.93,17.1866667 5.79,17.9 C5.65,18.6066667 5.58,19.5233333 5.58,20.65 L5.58,20.65 L5.58,30.61 C5.58,31.7366667 5.65,32.66 5.79,33.38 C5.93,34.0933333 6.12666667,34.6566667 6.38,35.07 C6.62666667,35.4766667 6.92333333,35.7566667 7.27,35.91 C7.61,36.0633333 7.98666667,36.14 8.4,36.14 Z M23.57,34.65 L23.57,11.47 L29.13,11.47 L29.13,34.21 C29.13,35.5433333 29.3333333,36.47 29.74,36.99 C30.1533333,37.51 30.7566667,37.77 31.55,37.77 L31.55,37.77 C32.1033333,37.77 32.6433333,37.6166667 33.17,37.31 C33.6966667,37.0033333 34.1733333,36.5633333 34.6,35.99 L34.6,35.99 L34.6,11.47 L40.16,11.47 L40.16,41.73 L35.92,41.73 L35.37,38.5 L35.35,38.5 C34.91,39.1866667 34.4433333,39.76 33.95,40.22 C33.4633333,40.68 32.95,41.0466667 32.41,41.32 C31.8766667,41.5933333 31.3333333,41.7866667 30.78,41.9 C30.22,42.02 29.6633333,42.08 29.11,42.08 L29.11,42.08 C27.3366667,42.08 25.97,41.4633333 25.01,40.23 C24.05,39.0033333 23.57,37.1433333 23.57,34.65 L23.57,34.65 Z M49.93,7.14 L49.93,7.14 C48.9033333,7.14 48.0933333,6.83333333 47.5,6.22 C46.9066667,5.6 46.61,4.7 46.61,3.52 L46.61,3.52 C46.61,2.86 46.6866667,2.30666667 46.84,1.86 C46.9933333,1.41333333 47.2133333,1.05333333 47.5,0.78 C47.7866667,0.506666667 48.1333333,0.31 48.54,0.19 C48.9533333,0.0633333333 49.4233333,0 49.95,0 L49.95,0 C51.05,0 51.8833333,0.276666667 52.45,0.83 C53.0233333,1.39 53.31,2.28666667 53.31,3.52 L53.31,3.52 C53.31,4.66 53.02,5.54666667 52.44,6.18 C51.86,6.82 51.0233333,7.14 49.93,7.14 Z M47.05,41.73 L47.05,11.47 L52.61,11.47 L52.61,41.73 L47.05,41.73 Z M65.21,42.08 L65.21,42.08 C64.87,42.08 64.4733333,42.0466667 64.02,41.98 C63.5666667,41.9133333 63.1,41.7633333 62.62,41.53 C62.1333333,41.2966667 61.6566667,40.9433333 61.19,40.47 C60.7166667,40.0033333 60.2966667,39.3633333 59.93,38.55 C59.57,37.7366667 59.2733333,36.73 59.04,35.53 C58.8133333,34.33 58.7,32.8733333 58.7,31.16 L58.7,31.16 L58.7,21.55 C58.7,19.8566667 58.8233333,18.4233333 59.07,17.25 C59.31,16.0766667 59.6266667,15.1066667 60.02,14.34 C60.42,13.5666667 60.8633333,12.9633333 61.35,12.53 C61.8433333,12.1033333 62.3333333,11.7866667 62.82,11.58 C63.3133333,11.3733333 63.7833333,11.25 64.23,11.21 C64.6766667,11.1633333 65.0466667,11.14 65.34,11.14 L65.34,11.14 C65.88,11.14 66.3933333,11.2133333 66.88,11.36 C67.36,11.5066667 67.8,11.7 68.2,11.94 C68.5933333,12.18 68.9433333,12.45 69.25,12.75 C69.5566667,13.0566667 69.8133333,13.3633333 70.02,13.67 L70.02,13.67 L70.04,13.64 L69.87,9.82 L69.87,1.76 L75.4,1.76 L75.4,41.73 L71.07,41.73 L70.59,38.91 C70.3433333,39.31 70.0566667,39.7 69.73,40.08 C69.41,40.46 69.03,40.8 68.59,41.1 C68.15,41.4 67.6533333,41.6366667 67.1,41.81 C66.54,41.99 65.91,42.08 65.21,42.08 Z M67.1,37.77 L67.1,37.77 C67.4666667,37.77 67.7933333,37.7066667 68.08,37.58 C68.36,37.46 68.6133333,37.3 68.84,37.1 C69.0666667,36.9 69.2666667,36.67 69.44,36.41 C69.6066667,36.1433333 69.75,35.8733333 69.87,35.6 L69.87,35.6 L69.87,17.4 C69.59,16.7866667 69.22,16.2633333 68.76,15.83 C68.2933333,15.3966667 67.7333333,15.18 67.08,15.18 L67.08,15.18 C66.6666667,15.18 66.29,15.2533333 65.95,15.4 C65.6166667,15.5466667 65.3266667,15.8233333 65.08,16.23 C64.8266667,16.63 64.63,17.1866667 64.49,17.9 C64.3566667,18.6066667 64.29,19.5233333 64.29,20.65 L64.29,20.65 L64.29,32.26 C64.29,33.3866667 64.3566667,34.3066667 64.49,35.02 C64.63,35.74 64.8266667,36.3 65.08,36.7 C65.3266667,37.1066667 65.6233333,37.3866667 65.97,37.54 C66.31,37.6933333 66.6866667,37.77 67.1,37.77 Z M85.08,7.14 L85.08,7.14 C84.0533333,7.14 83.2433333,6.83333333 82.65,6.22 C82.0566667,5.6 81.76,4.7 81.76,3.52 L81.76,3.52 C81.76,2.86 81.84,2.30666667 82,1.86 C82.1533333,1.41333333 82.37,1.05333333 82.65,0.78 C82.9366667,0.506666667 83.2866667,0.31 83.7,0.19 C84.1066667,0.0633333333 84.5733333,0 85.1,0 L85.1,0 C86.2,0 87.0366667,0.276666667 87.61,0.83 C88.1833333,1.39 88.47,2.28666667 88.47,3.52 L88.47,3.52 C88.47,4.66 88.18,5.54666667 87.6,6.18 C87.02,6.82 86.18,7.14 85.08,7.14 Z M82.2,41.73 L82.2,11.47 L87.76,11.47 L87.76,41.73 L82.2,41.73 Z M94.56,41.73 L94.56,11.47 L98.85,11.47 L99.35,14.7 L99.35,14.72 C99.79,14.0333333 100.263333,13.46 100.77,13 C101.276667,12.5333333 101.8,12.1633333 102.34,11.89 C102.886667,11.61 103.44,11.41 104,11.29 C104.566667,11.1766667 105.126667,11.12 105.68,11.12 L105.68,11.12 C107.453333,11.12 108.82,11.7366667 109.78,12.97 C110.74,14.21 111.22,16.0666667 111.22,18.54 L111.22,18.54 L111.22,41.73 L105.66,41.73 L105.66,18.74 C105.66,17.4066667 105.453333,16.48 105.04,15.96 C104.633333,15.44 104.033333,15.18 103.24,15.18 L103.24,15.18 C102.686667,15.18 102.133333,15.3633333 101.58,15.73 C101.033333,16.0966667 100.546667,16.6033333 100.12,17.25 L100.12,17.25 L100.12,41.73 L94.56,41.73 Z M118.57,43.79 L122.5,43.79 C122.5,45.0966667 122.743333,46.02 123.23,46.56 C123.71,47.1 124.456667,47.37 125.47,47.37 L125.47,47.37 C125.876667,47.37 126.273333,47.31 126.66,47.19 C127.04,47.0633333 127.37,46.8333333 127.65,46.5 C127.936667,46.1733333 128.17,45.7166667 128.35,45.13 C128.523333,44.5433333 128.61,43.79 128.61,42.87 L128.61,42.87 L128.61,38.1 C128.11,38.7466667 127.47,39.3 126.69,39.76 C125.903333,40.22 124.933333,40.45 123.78,40.45 L123.78,40.45 C123.44,40.45 123.043333,40.4166667 122.59,40.35 C122.136667,40.2833333 121.666667,40.1333333 121.18,39.9 C120.7,39.6666667 120.226667,39.3133333 119.76,38.84 C119.286667,38.36 118.866667,37.7166667 118.5,36.91 C118.133333,36.11 117.836667,35.1033333 117.61,33.89 C117.383333,32.6833333 117.27,31.2233333 117.27,29.51 L117.27,29.51 L117.27,21.55 C117.27,19.91 117.383333,18.5166667 117.61,17.37 C117.836667,16.2166667 118.133333,15.2533333 118.5,14.48 C118.866667,13.7 119.29,13.0933333 119.77,12.66 C120.243333,12.22 120.726667,11.8866667 121.22,11.66 C121.706667,11.4333333 122.186667,11.29 122.66,11.23 C123.126667,11.17 123.543333,11.14 123.91,11.14 L123.91,11.14 C124.643333,11.14 125.29,11.2366667 125.85,11.43 C126.416667,11.6166667 126.91,11.8666667 127.33,12.18 C127.743333,12.5 128.096667,12.8566667 128.39,13.25 C128.683333,13.6433333 128.933333,14.04 129.14,14.44 L129.14,14.44 L129.64,11.45 L133.97,11.45 L133.97,40.5 C133.97,42.18 133.81,43.6966667 133.49,45.05 C133.17,46.41 132.663333,47.57 131.97,48.53 C131.283333,49.49 130.41,50.2233333 129.35,50.73 C128.283333,51.2433333 127.01,51.5 125.53,51.5 L125.53,51.5 C124.536667,51.5 123.6,51.4133333 122.72,51.24 C121.84,51.0666667 121.07,50.7566667 120.41,50.31 C119.756667,49.8633333 119.236667,49.2533333 118.85,48.48 C118.47,47.7133333 118.28,46.7366667 118.28,45.55 L118.28,45.55 C118.28,45.3433333 118.303333,45.0866667 118.35,44.78 C118.396667,44.4733333 118.47,44.1433333 118.57,43.79 L118.57,43.79 Z M125.67,36.14 L125.67,36.14 C126.036667,36.14 126.36,36.08 126.64,35.96 C126.926667,35.8333333 127.183333,35.6666667 127.41,35.46 C127.636667,35.26 127.836667,35.0266667 128.01,34.76 C128.176667,34.4933333 128.316667,34.2233333 128.43,33.95 L128.43,33.95 L128.43,17.4 C128.156667,16.7866667 127.79,16.2633333 127.33,15.83 C126.863333,15.3966667 126.3,15.18 125.64,15.18 L125.64,15.18 C125.233333,15.18 124.86,15.2533333 124.52,15.4 C124.186667,15.5466667 123.893333,15.8233333 123.64,16.23 C123.393333,16.63 123.2,17.1866667 123.06,17.9 C122.92,18.6066667 122.85,19.5233333 122.85,20.65 L122.85,20.65 L122.85,30.61 C122.85,31.7366667 122.92,32.66 123.06,33.38 C123.2,34.0933333 123.393333,34.6566667 123.64,35.07 C123.893333,35.4766667 124.19,35.7566667 124.53,35.91 C124.876667,36.0633333 125.256667,36.14 125.67,36.14 Z M139.94,37.79 L139.94,37.79 C139.94,36.2366667 140.246667,35.1233333 140.86,34.45 C141.473333,33.7766667 142.31,33.44 143.37,33.44 L143.37,33.44 C144.463333,33.44 145.31,33.8 145.91,34.52 C146.516667,35.24 146.82,36.33 146.82,37.79 L146.82,37.79 C146.82,39.1366667 146.513333,40.18 145.9,40.92 C145.293333,41.66 144.44,42.03 143.34,42.03 L143.34,42.03 C142.3,42.03 141.473333,41.6733333 140.86,40.96 C140.246667,40.24 139.94,39.1833333 139.94,37.79 Z M152.8,41.73 L152.8,1.76 L158.36,1.76 L158.36,8.88 L158.08,14.06 C158.486667,13.4933333 158.93,13.02 159.41,12.64 C159.883333,12.2666667 160.373333,11.9666667 160.88,11.74 C161.386667,11.5133333 161.9,11.3533333 162.42,11.26 C162.94,11.1666667 163.456667,11.12 163.97,11.12 L163.97,11.12 C165.736667,11.12 167.1,11.7366667 168.06,12.97 C169.02,14.21 169.5,16.0666667 169.5,18.54 L169.5,18.54 L169.5,41.73 L163.94,41.73 L163.94,18.74 C163.94,17.4066667 163.736667,16.48 163.33,15.96 C162.916667,15.44 162.316667,15.18 161.53,15.18 L161.53,15.18 C160.97,15.18 160.41,15.3666667 159.85,15.74 C159.283333,16.1133333 158.786667,16.63 158.36,17.29 L158.36,17.29 L158.36,41.73 L152.8,41.73 Z M183.55,42.06 L183.55,42.06 C182.25,42.06 181.096667,41.8166667 180.09,41.33 C179.09,40.8433333 178.246667,40.09 177.56,39.07 C176.866667,38.0433333 176.346667,36.7266667 176,35.12 C175.646667,33.52 175.47,31.59 175.47,29.33 L175.47,29.33 L175.47,23.62 C175.47,21.7 175.613333,20.0566667 175.9,18.69 C176.186667,17.3166667 176.56,16.1666667 177.02,15.24 C177.48,14.3066667 178.013333,13.57 178.62,13.03 C179.226667,12.49 179.853333,12.0766667 180.5,11.79 C181.146667,11.5033333 181.786667,11.32 182.42,11.24 C183.06,11.16 183.65,11.12 184.19,11.12 L184.19,11.12 C185.19,11.12 186.15,11.27 187.07,11.57 C187.99,11.87 188.803333,12.3833333 189.51,13.11 C190.21,13.83 190.77,14.8 191.19,16.02 C191.61,17.2333333 191.82,18.75 191.82,20.57 L191.82,20.57 C191.82,21.1833333 191.8,21.8033333 191.76,22.43 C191.726667,23.0633333 191.68,23.6833333 191.62,24.29 C191.56,24.8966667 191.483333,25.4866667 191.39,26.06 C191.29,26.6333333 191.19,27.16 191.09,27.64 L191.09,27.64 L181.05,27.64 L181.05,30.72 C181.05,32.0333333 181.1,33.1433333 181.2,34.05 C181.306667,34.95 181.48,35.6733333 181.72,36.22 C181.96,36.7733333 182.29,37.17 182.71,37.41 C183.123333,37.65 183.646667,37.77 184.28,37.77 L184.28,37.77 C184.613333,37.77 184.943333,37.7 185.27,37.56 C185.59,37.42 185.87,37.19 186.11,36.87 C186.356667,36.55 186.553333,36.12 186.7,35.58 C186.846667,35.0466667 186.92,34.3866667 186.92,33.6 L186.92,33.6 L186.92,32.65 L191.55,32.65 L191.55,33.82 C191.55,36.6866667 190.866667,38.7766667 189.5,40.09 C188.126667,41.4033333 186.143333,42.06 183.55,42.06 Z M181.05,23.91 L186.63,23.91 C186.643333,23.7433333 186.656667,23.5266667 186.67,23.26 C186.69,22.9866667 186.703333,22.7033333 186.71,22.41 C186.716667,22.1166667 186.72,21.8266667 186.72,21.54 C186.72,21.26 186.72,21.0166667 186.72,20.81 L186.72,20.81 C186.72,18.8166667 186.486667,17.38 186.02,16.5 C185.546667,15.62 184.85,15.18 183.93,15.18 L183.93,15.18 C183.443333,15.18 183.016667,15.2933333 182.65,15.52 C182.283333,15.7466667 181.983333,16.13 181.75,16.67 C181.516667,17.2033333 181.343333,17.91 181.23,18.79 C181.11,19.6633333 181.05,20.7533333 181.05,22.06 L181.05,22.06 L181.05,23.91 Z M197.61,41.73 L197.61,1.76 L203.16,1.76 L203.16,41.73 L197.61,41.73 Z M215.35,39.73 L215.52,43.44 L215.52,51.5 L209.97,51.5 L209.97,11.47 L214.32,11.47 L214.82,14.66 C215.073333,14.2466667 215.37,13.8266667 215.71,13.4 C216.056667,12.98 216.46,12.6033333 216.92,12.27 C217.38,11.9433333 217.9,11.6733333 218.48,11.46 C219.06,11.2466667 219.706667,11.14 220.42,11.14 L220.42,11.14 C220.733333,11.14 221.103333,11.17 221.53,11.23 C221.963333,11.29 222.41,11.4366667 222.87,11.67 C223.336667,11.9033333 223.8,12.25 224.26,12.71 C224.72,13.17 225.13,13.8033333 225.49,14.61 C225.85,15.4166667 226.143333,16.42 226.37,17.62 C226.596667,18.82 226.71,20.2766667 226.71,21.99 L226.71,21.99 L226.71,31.16 C226.71,32.8733333 226.596667,34.33 226.37,35.53 C226.143333,36.73 225.846667,37.7333333 225.48,38.54 C225.113333,39.3466667 224.696667,39.9833333 224.23,40.45 C223.756667,40.9166667 223.28,41.27 222.8,41.51 C222.313333,41.7433333 221.843333,41.8933333 221.39,41.96 C220.936667,42.0266667 220.54,42.06 220.2,42.06 L220.2,42.06 C219.033333,42.06 218.056667,41.83 217.27,41.37 C216.49,40.9166667 215.85,40.37 215.35,39.73 L215.35,39.73 Z M215.52,17.27 L215.52,35.55 C215.64,35.8433333 215.783333,36.1233333 215.95,36.39 C216.123333,36.65 216.323333,36.8833333 216.55,37.09 C216.776667,37.2966667 217.033333,37.46 217.32,37.58 C217.6,37.7066667 217.933333,37.77 218.32,37.77 L218.32,37.77 C218.726667,37.77 219.1,37.6933333 219.44,37.54 C219.773333,37.3866667 220.063333,37.1066667 220.31,36.7 C220.563333,36.3 220.76,35.74 220.9,35.02 C221.04,34.3066667 221.11,33.3866667 221.11,32.26 L221.11,32.26 L221.11,20.68 C221.11,19.5466667 221.04,18.6266667 220.9,17.92 C220.76,17.2066667 220.57,16.6466667 220.33,16.24 C220.083333,15.8266667 219.793333,15.5466667 219.46,15.4 C219.12,15.2533333 218.746667,15.18 218.34,15.18 L218.34,15.18 C217.633333,15.18 217.056667,15.39 216.61,15.81 C216.163333,16.2233333 215.8,16.71 215.52,17.27 L215.52,17.27 Z"></path>
                    </g>
                </g>
            </g>
        </g>
    </g>
</svg>