<?xml version="1.0" standalone="no"?>
<!DOCTYPE svg PUBLIC "-//W3C//DTD SVG 20010904//EN"
 "http://www.w3.org/TR/2001/REC-SVG-20010904/DTD/svg10.dtd">
<svg version="1.0" xmlns="http://www.w3.org/2000/svg"
 width="1112.000000pt" height="1112.000000pt" viewBox="0 0 1112.000000 1112.000000"
 preserveAspectRatio="xMidYMid meet">
<metadata>
Created by potrace 1.11, written by Peter Selinger 2001-2013
</metadata>
<g transform="translate(0.000000,1112.000000) scale(0.100000,-0.100000)"
fill="#000000" stroke="none">
<path d="M1140 9363 c0 -4 -28 -8 -63 -9 -37 0 -78 -8 -102 -19 -22 -10 -43
-17 -47 -17 -11 2 -128 -117 -139 -141 -5 -12 -20 -40 -32 -63 -32 -55 -93
-226 -106 -294 -6 -30 -18 -93 -27 -140 -9 -47 -17 -92 -19 -100 -2 -8 -6 -44
-10 -80 -4 -36 -10 -69 -13 -74 -3 -5 -6 -25 -8 -45 -2 -20 -6 -57 -9 -83 -12
-107 -16 -146 -20 -198 -2 -30 -4 -55 -5 -55 0 0 -3 -43 -7 -95 -10 -166 -4
-695 7 -695 1 0 3 -25 5 -55 4 -60 10 -112 19 -175 11 -68 27 -173 30 -187 2
-7 6 -31 10 -53 5 -22 16 -74 27 -116 10 -42 20 -85 22 -95 1 -10 6 -25 10
-31 5 -7 6 -13 3 -13 -3 0 -1 -12 5 -27 6 -16 12 -36 14 -46 5 -25 74 -226 90
-262 7 -16 23 -55 35 -85 61 -151 246 -497 272 -508 4 -2 8 -10 8 -18 0 -8 5
-14 10 -14 6 0 10 -4 10 -10 0 -5 6 -18 14 -27 8 -10 36 -47 63 -83 26 -36 50
-67 53 -70 3 -3 29 -34 59 -70 145 -174 382 -384 588 -523 152 -103 435 -257
471 -257 6 0 12 -3 14 -7 3 -9 55 -29 205 -82 57 -20 103 -42 103 -48 0 -7 -5
-13 -12 -13 -6 0 -47 -21 -92 -47 -45 -26 -90 -51 -101 -57 -43 -24 -223 -147
-235 -161 -7 -8 -17 -15 -22 -15 -5 0 -19 -10 -32 -22 -13 -13 -42 -38 -65
-56 -33 -28 -100 -94 -166 -166 -33 -35 -111 -145 -153 -213 -39 -65 -103
-197 -108 -225 -1 -5 -2 -9 -4 -10 -14 -19 -38 -178 -37 -258 0 -93 27 -230
49 -257 6 -7 7 -13 4 -13 -10 0 84 -172 104 -190 3 -3 21 -25 40 -50 69 -91
309 -310 339 -310 6 0 11 -4 11 -8 0 -10 203 -142 218 -142 6 0 12 -4 14 -8 3
-9 163 -98 273 -152 39 -19 72 -37 75 -40 3 -3 12 -6 20 -8 8 -2 42 -16 75
-31 57 -27 149 -60 170 -62 6 0 15 -4 20 -9 11 -9 134 -42 205 -56 14 -2 31
-7 39 -10 8 -2 37 -7 65 -10 28 -3 78 -9 111 -13 64 -9 310 -7 341 2 11 3 39
9 64 13 94 13 278 71 305 95 5 5 17 9 27 9 10 0 18 4 18 8 0 4 12 13 28 19 50
22 108 61 191 128 52 42 161 155 202 212 57 76 109 151 109 157 0 3 18 31 39
64 22 32 53 83 69 113 16 30 51 91 76 137 25 45 47 88 49 95 1 7 5 14 8 17 8
7 75 149 84 178 3 12 11 22 16 22 5 0 9 7 9 15 0 8 13 43 29 77 38 83 127 318
137 361 1 4 3 9 4 12 1 3 4 10 5 15 1 6 4 12 5 15 1 3 3 8 4 13 1 4 5 13 9 20
5 6 6 12 3 12 -3 0 2 19 10 42 12 35 28 94 49 188 2 8 9 38 15 65 6 28 13 62
15 78 20 145 25 187 26 222 2 22 6 47 10 56 5 9 6 19 2 23 -3 3 -8 54 -9 113
-2 60 -5 119 -7 133 -3 14 -8 48 -12 75 -6 44 -27 123 -43 165 -3 8 -4 18 -4
23 1 4 -3 7 -10 7 -6 0 -9 3 -5 6 6 6 -25 72 -55 116 -18 26 -18 27 16 100 30
67 81 211 89 255 2 10 9 36 15 58 10 37 16 66 27 135 28 178 26 489 -6 655 -6
33 -12 69 -14 80 -1 11 -5 27 -8 35 -3 8 -11 38 -18 65 -24 94 -84 232 -173
400 -40 75 -195 313 -222 339 -8 9 -12 16 -7 16 4 0 3 4 -3 8 -5 4 -37 41 -69
82 -33 41 -64 80 -70 87 -5 6 -39 44 -75 84 -79 90 -271 282 -365 366 -39 35
-79 71 -90 81 -17 15 -88 74 -145 119 -115 91 -157 124 -224 172 -43 31 -85
61 -94 66 -9 6 -25 18 -36 28 -11 9 -25 17 -32 17 -6 0 -14 7 -18 15 -3 8 -10
15 -15 15 -6 0 -36 18 -68 41 -32 22 -68 45 -80 50 -13 5 -23 13 -23 19 0 5
-5 10 -10 10 -6 0 -74 38 -151 85 -76 47 -143 85 -148 85 -5 0 -16 6 -23 13
-7 6 -33 23 -58 36 -121 64 -156 83 -167 93 -7 6 -13 8 -13 4 0 -3 -22 8 -50
24 -27 16 -50 27 -50 23 0 -3 -8 1 -17 9 -10 8 -38 24 -63 35 -25 12 -97 46
-160 76 -130 62 -318 147 -325 147 -2 0 -33 13 -67 29 -57 25 -326 134 -338
136 -3 1 -22 9 -44 18 -21 9 -43 17 -48 17 -5 0 -25 7 -46 16 -20 10 -41 18
-47 20 -18 4 -190 65 -210 74 -11 5 -58 21 -105 36 -47 14 -91 31 -97 37 -7 5
-13 7 -13 3 0 -3 -24 3 -52 14 -29 11 -71 22 -93 26 -22 3 -43 8 -47 11 -5 2
-8 1 -8 -4z"/>
<path d="M9989 9366 c-3 -3 -26 -7 -51 -10 -46 -4 -167 -38 -200 -57 -10 -5
-23 -9 -29 -9 -11 0 -90 -27 -299 -101 -47 -17 -92 -33 -100 -36 -8 -4 -18 -7
-22 -7 -3 -1 -10 -4 -14 -8 -4 -5 -13 -8 -21 -8 -7 0 -32 -8 -56 -19 -23 -10
-80 -33 -127 -51 -89 -34 -97 -37 -172 -69 -26 -12 -49 -21 -53 -21 -3 0 -24
-9 -48 -19 -130 -60 -177 -79 -177 -73 0 4 -4 3 -8 -3 -10 -14 -49 -35 -66
-35 -7 0 -19 -7 -26 -15 -7 -9 -18 -14 -25 -11 -6 2 -22 -5 -36 -15 -13 -10
-28 -19 -34 -19 -11 0 -377 -182 -385 -191 -3 -3 -34 -21 -70 -39 -36 -18 -94
-49 -130 -70 -36 -21 -86 -49 -111 -63 -43 -24 -110 -66 -134 -84 -5 -5 -22
-14 -37 -22 -16 -8 -28 -18 -28 -22 0 -4 -11 -10 -25 -13 -14 -4 -23 -11 -20
-16 3 -6 -3 -10 -15 -10 -11 0 -23 -7 -26 -15 -4 -8 -11 -15 -18 -15 -6 0 -22
-9 -36 -20 -14 -11 -74 -55 -135 -97 -60 -42 -112 -79 -115 -83 -3 -4 -12 -11
-21 -16 -9 -5 -33 -22 -54 -39 -199 -157 -253 -201 -272 -219 -12 -11 -43 -39
-69 -61 -98 -82 -353 -343 -461 -471 -202 -241 -377 -514 -478 -749 -17 -40
-75 -206 -75 -215 -1 -3 -5 -21 -10 -40 -5 -19 -11 -53 -15 -74 -3 -21 -7 -48
-10 -60 -19 -90 -28 -410 -14 -513 4 -32 10 -80 14 -107 3 -27 8 -53 10 -56 3
-4 6 -22 9 -41 10 -77 69 -264 116 -365 l30 -64 -30 -49 c-17 -26 -30 -53 -30
-60 0 -6 -5 -11 -10 -11 -6 0 -10 -6 -9 -12 1 -7 -3 -25 -9 -40 -17 -41 -40
-128 -47 -173 -3 -23 -8 -52 -10 -65 -4 -20 -13 -124 -17 -205 -2 -24 13 -232
17 -255 3 -14 8 -45 11 -70 3 -25 15 -83 25 -130 23 -103 29 -130 33 -152 1
-10 5 -21 9 -24 4 -4 7 -14 7 -23 0 -16 83 -279 100 -316 5 -11 23 -56 40
-100 17 -44 39 -98 49 -120 10 -22 29 -65 42 -95 13 -30 50 -106 83 -170 32
-63 68 -133 79 -155 11 -22 22 -42 26 -45 3 -3 14 -20 24 -38 43 -81 57 -103
134 -219 46 -68 87 -129 93 -136 150 -182 320 -319 454 -368 20 -7 36 -17 36
-21 0 -4 8 -8 18 -8 10 0 22 -3 26 -8 4 -4 11 -7 14 -7 4 -1 30 -8 57 -18 135
-45 285 -65 450 -62 66 2 140 6 165 9 25 4 59 8 75 11 54 7 134 24 191 41 31
9 64 18 73 19 9 2 17 4 19 5 1 2 7 4 12 5 6 1 11 3 13 5 1 1 9 3 17 5 67 14
394 164 528 244 29 17 55 31 58 31 7 0 270 169 299 192 6 5 20 17 33 27 13 11
42 34 65 53 51 40 195 185 222 223 11 16 26 34 33 41 6 7 12 15 12 19 0 4 13
25 28 48 52 79 86 162 105 257 29 145 20 264 -30 409 -26 78 -97 221 -136 275
-63 88 -140 184 -190 235 -69 71 -250 221 -266 221 -6 0 -11 4 -11 9 0 5 -8
12 -18 15 -10 4 -27 14 -38 24 -25 21 -51 38 -84 54 -14 7 -27 15 -30 18 -7 8
-117 71 -173 99 -26 14 -44 27 -40 31 4 4 37 17 73 29 214 75 459 189 598 277
29 19 56 34 61 34 5 0 11 3 13 8 2 4 32 27 68 52 36 24 67 48 68 52 2 4 8 8
14 8 6 0 25 12 42 28 18 15 46 37 62 50 99 77 268 239 367 352 59 67 209 265
227 300 7 14 16 27 19 30 7 6 39 54 57 85 88 156 184 348 184 367 0 6 7 19 15
28 8 9 16 25 18 36 2 10 10 35 19 54 8 19 21 53 28 75 7 22 17 45 22 51 5 7 8
16 6 20 -1 5 11 47 26 94 15 47 29 92 31 100 2 8 15 62 29 120 14 58 27 116
30 130 2 14 11 63 19 110 9 47 19 110 22 140 3 30 8 66 10 80 4 28 13 127 21
245 7 97 7 471 0 575 -11 162 -22 288 -30 335 -2 17 -7 57 -11 90 -3 33 -8 69
-10 80 -3 11 -7 37 -10 58 -11 79 -16 113 -20 127 -2 8 -7 38 -11 65 -3 28 -8
53 -10 57 -3 4 -7 22 -9 40 -6 39 -21 110 -25 116 -2 1 -3 5 -5 10 -1 4 -5 16
-9 27 -4 11 -17 45 -29 75 -82 217 -208 341 -352 344 -27 0 -53 4 -56 9 -3 4
-8 5 -10 3z"/>
</g>
</svg>
